<svg width="260" height="160" viewBox="0 0 260 160" fill="none" xmlns="http://www.w3.org/2000/svg">
<rect width="260" height="160" fill="#F5F5F7"/>
<path d="M148.64 124.934H110.777C109.505 124.934 108.463 123.889 108.463 122.613C108.463 121.338 109.505 120.293 110.777 120.293H148.642C149.914 120.293 150.955 121.338 150.955 122.613C150.955 123.889 149.914 124.934 148.64 124.934Z" fill="#978CFF"/>
<path d="M136.803 124.934H122.614C121.621 124.934 120.809 124.119 120.809 123.123V106.152C120.809 105.156 121.621 104.341 122.614 104.341H136.803C137.796 104.341 138.608 105.156 138.608 106.152V123.123C138.608 124.119 137.796 124.934 136.803 124.934Z" fill="#978CFF"/>
<path d="M195.848 110.564H63.5695C60.8353 110.564 58.5984 108.321 58.5984 105.579V24.985C58.5984 22.2432 60.8353 20 63.5695 20H195.848C198.582 20 200.819 22.2432 200.819 24.985V105.579C200.82 108.321 198.582 110.564 195.848 110.564Z" fill="#A7ADFF"/>
<path d="M65.3918 22.1079C62.9305 22.1079 60.9179 24.1261 60.9179 26.5943V55.5731C75.0015 44.2345 89.2873 33.1004 103.716 22.1079L65.3918 22.1079Z" fill="#EFF0FC"/>
<path d="M193.481 22.1079H180.699H103.715C89.2864 33.1004 75.0005 44.2345 60.9169 55.5731V85.9975V96.9507C60.9169 99.4188 62.9311 101.437 65.3908 101.437H193.479C195.94 101.437 197.953 99.4172 197.953 96.9507V26.5943C197.954 24.1261 195.94 22.1079 193.481 22.1079Z" fill="#E3E5FC"/>
<path d="M129.436 106.655C130.119 106.655 130.672 106.1 130.672 105.415C130.672 104.731 130.119 104.176 129.436 104.176C128.753 104.176 128.2 104.731 128.2 105.415C128.2 106.1 128.753 106.655 129.436 106.655Z" fill="#4B369D"/>
<path d="M41.4795 93.3313C41.3162 93.3313 41.1858 93.1991 41.1858 93.0371V92.153C41.1858 91.9895 41.3177 91.8589 41.4795 91.8589C41.6412 91.8589 41.7731 91.991 41.7731 92.153V93.0371C41.7731 93.1991 41.6428 93.3313 41.4795 93.3313Z" fill="#4B369D"/>
<path fill-rule="evenodd" clip-rule="evenodd" d="M50.2021 50.5945C50.2021 50.7565 50.3339 50.8871 50.4954 50.8871C50.4961 50.8871 50.4965 50.8871 50.4968 50.8869C50.4973 50.8868 50.4977 50.8864 50.4986 50.8855C51.1135 50.8792 51.7127 50.8776 52.2884 50.8776C52.45 50.8776 52.5818 50.7471 52.5818 50.5835C52.5818 50.4214 52.4516 50.2893 52.2884 50.2893C51.7112 50.2893 51.1104 50.2925 50.4939 50.2972C50.3307 50.2987 50.2005 50.4325 50.2021 50.5945ZM55.87 50.9013H55.8653C55.3288 50.8934 54.728 50.8887 54.0754 50.884C53.9123 50.8824 53.7821 50.7503 53.7836 50.5882C53.7852 50.4262 53.9374 50.3098 54.0786 50.2957C54.7311 50.3004 55.3351 50.3051 55.8731 50.313C56.0347 50.3145 56.1649 50.4482 56.1633 50.6118C56.1617 50.7723 56.0315 50.9013 55.87 50.9013ZM46.6197 50.6558C46.6228 50.8163 46.7546 50.9437 46.913 50.9437C46.9162 50.9437 46.9177 50.9437 46.9225 50.9421C47.5233 50.9264 48.1209 50.9138 48.7107 50.9044C48.8723 50.9028 49.0025 50.7691 48.9994 50.6055C48.9978 50.4435 48.8911 50.3208 48.7013 50.316L48.6579 50.3168C48.0791 50.3276 47.4944 50.3384 46.9068 50.3538C46.7436 50.3585 46.615 50.4938 46.6197 50.6558ZM43.4903 51.8069C43.3946 51.8069 43.2989 51.7597 43.2424 51.6716C43.1546 51.5347 43.1938 51.3523 43.3303 51.2642C43.8307 50.9401 44.4174 50.6994 45.0715 50.55C45.2268 50.5107 45.3868 50.6129 45.4229 50.7718C45.459 50.9307 45.3601 51.088 45.2017 51.1242C44.6135 51.2579 44.0911 51.4718 43.6487 51.7597C43.6001 51.7911 43.5452 51.8069 43.4903 51.8069ZM41.5187 54.7254C41.5391 54.7301 41.5595 54.7317 41.5799 54.7317C41.7148 54.7317 41.8371 54.6357 41.8685 54.5004C41.9924 53.9137 42.201 53.3883 42.4881 52.9368C42.576 52.7984 42.5352 52.6175 42.3987 52.5294C42.2622 52.4413 42.0803 52.4822 41.9924 52.619C41.6677 53.1287 41.4324 53.7202 41.2928 54.3761C41.2583 54.535 41.3602 54.6908 41.5187 54.7254ZM41.4796 58.315C41.3163 58.315 41.1859 58.1829 41.1859 58.0208V56.5327C41.1828 56.5264 41.1687 56.4163 41.1577 56.2449C41.1467 56.0828 41.2707 55.9428 41.4325 55.9318C41.5927 55.9224 41.734 56.0451 41.745 56.2071C41.7535 56.3375 41.7639 56.4264 41.7682 56.4627C41.7694 56.4733 41.7701 56.4794 41.7701 56.4808L41.7733 58.0208C41.7733 58.1829 41.6429 58.315 41.4796 58.315ZM41.1858 61.6137C41.1858 61.7757 41.3162 61.9079 41.4795 61.9079C41.6428 61.9079 41.7732 61.7757 41.7732 61.6121V59.8157C41.7732 59.6537 41.6412 59.5215 41.4795 59.5215C41.3177 59.5215 41.1858 59.6521 41.1858 59.8157V61.6137ZM41.4795 65.5007C41.3162 65.5007 41.1858 65.3686 41.1858 65.2066V63.4101C41.1858 63.2466 41.3177 63.116 41.4795 63.116C41.6412 63.116 41.7732 63.2481 41.7732 63.4101V65.2066C41.7732 65.3686 41.6428 65.5007 41.4795 65.5007ZM41.1858 68.7995C41.1858 68.9615 41.3162 69.0936 41.4795 69.0936C41.6428 69.0936 41.7732 68.9615 41.7732 68.7995V67.003C41.7732 66.841 41.6412 66.7089 41.4795 66.7089C41.3177 66.7089 41.1858 66.8394 41.1858 67.003V68.7995ZM41.4795 72.6865C41.3162 72.6865 41.1858 72.5543 41.1858 72.3923V70.5959C41.1858 70.4323 41.3177 70.3017 41.4795 70.3017C41.6412 70.3017 41.7732 70.4339 41.7732 70.5959V72.3923C41.7732 72.5543 41.6428 72.6865 41.4795 72.6865ZM41.1858 75.9852C41.1858 76.1472 41.3162 76.2794 41.4795 76.2794C41.6428 76.2794 41.7732 76.1472 41.7732 75.9852V74.1888C41.7732 74.0267 41.6412 73.8946 41.4795 73.8946C41.3177 73.8946 41.1858 74.0252 41.1858 74.1888V75.9852ZM41.4795 79.8722C41.3162 79.8722 41.1858 79.74 41.1858 79.578V77.78C41.1858 77.6164 41.3177 77.4858 41.4795 77.4858C41.6412 77.4858 41.7732 77.618 41.7732 77.78V79.5764C41.7732 79.74 41.6428 79.8722 41.4795 79.8722ZM41.1858 83.1709C41.1858 83.3329 41.3162 83.465 41.4795 83.465C41.6428 83.465 41.7732 83.3329 41.7732 83.1709V81.3744C41.7732 81.2124 41.6412 81.0803 41.4795 81.0803C41.3177 81.0803 41.1858 81.2108 41.1858 81.3744V83.1709ZM41.4795 87.0579C41.3162 87.0579 41.1858 86.9257 41.1858 86.7637V84.9673C41.1858 84.8037 41.3177 84.6731 41.4795 84.6731C41.6412 84.6731 41.7732 84.8053 41.7732 84.9673V86.7637C41.7732 86.9257 41.6428 87.0579 41.4795 87.0579ZM41.4795 90.6508C41.3162 90.6508 41.1858 90.5186 41.1858 90.3566V88.5602C41.1858 88.3966 41.3177 88.266 41.4795 88.266C41.6412 88.266 41.7732 88.3981 41.7732 88.5602V90.3566C41.7732 90.5186 41.6428 90.6508 41.4795 90.6508Z" fill="#4B369D"/>
<path d="M58.5538 50.9515C58.5507 50.9515 58.5491 50.9515 58.546 50.9515C58.546 50.9515 58.2291 50.9437 57.6675 50.9311C57.5059 50.9279 57.3757 50.7927 57.3789 50.6306C57.382 50.4686 57.5326 50.3538 57.6785 50.3412C58.2416 50.3522 58.5601 50.3616 58.5601 50.3616C58.7217 50.3664 58.8503 50.5016 58.8456 50.6637C58.8424 50.8241 58.7122 50.9515 58.5538 50.9515Z" fill="#4B369D"/>
<path d="M131.217 125.819C131.057 125.819 130.926 125.692 130.923 125.532C130.911 124.973 130.901 124.652 130.901 124.652C130.897 124.49 131.024 124.353 131.187 124.349C131.338 124.35 131.485 124.471 131.49 124.635C131.49 124.635 131.5 124.957 131.512 125.521C131.515 125.683 131.387 125.818 131.225 125.821C131.222 125.819 131.219 125.819 131.217 125.819Z" fill="#4B369D"/>
<path fill-rule="evenodd" clip-rule="evenodd" d="M130.966 129.025C130.966 129.189 131.097 129.32 131.259 129.32C131.423 129.32 131.554 129.186 131.554 129.022C131.551 128.387 131.547 127.797 131.54 127.268C131.537 127.106 131.382 126.968 131.242 126.977C131.08 126.98 130.95 127.114 130.951 127.276C130.958 127.803 130.964 128.391 130.966 129.025ZM131.237 132.821H131.233C131.071 132.818 130.941 132.684 130.944 132.522C130.953 131.926 130.959 131.339 130.963 130.775C130.964 130.613 131.094 130.482 131.256 130.482H131.258C131.421 130.484 131.551 130.616 131.55 130.778C131.547 131.346 131.54 131.932 131.531 132.532C131.529 132.692 131.399 132.821 131.237 132.821ZM130.842 136.279C130.872 136.29 130.903 136.294 130.935 136.294C131.057 136.294 131.172 136.216 131.214 136.092C131.379 135.598 131.472 135.039 131.49 134.43L131.495 134.286C131.5 134.122 131.371 133.987 131.209 133.982C131.059 133.979 130.911 134.106 130.906 134.268L130.902 134.413C130.886 134.964 130.803 135.465 130.657 135.906C130.605 136.06 130.688 136.227 130.842 136.279ZM64.5515 137.205C64.4353 137.205 64.3253 137.136 64.2798 137.023C64.217 136.869 64.173 136.705 64.1495 136.535L64.1463 135.176C64.1463 135.012 64.2782 134.882 64.44 134.882C64.6017 134.882 64.7336 135.014 64.7336 135.176V136.494C64.7478 136.575 64.7776 136.689 64.8216 136.798C64.8828 136.949 64.8106 137.12 64.6614 137.182C64.6269 137.197 64.5892 137.205 64.5515 137.205ZM128.279 138.479C128.323 138.601 128.436 138.676 128.556 138.676C128.588 138.676 128.621 138.67 128.654 138.659C129.279 138.437 129.814 138.11 130.241 137.687C130.356 137.572 130.357 137.386 130.243 137.27C130.128 137.155 129.943 137.153 129.827 137.268C129.461 137.63 129.002 137.91 128.457 138.103C128.305 138.157 128.224 138.325 128.279 138.479ZM67.4339 138.845L67.4339 138.845L67.4299 138.844C66.7476 138.738 66.1577 138.568 65.6746 138.343C65.5271 138.273 65.4644 138.099 65.5318 137.951C65.5993 137.803 65.7734 137.74 65.9224 137.808C66.3554 138.009 66.8935 138.162 67.5209 138.261C67.6809 138.286 67.7907 138.437 67.7656 138.598C67.7421 138.744 67.6166 138.848 67.4754 138.848C67.4611 138.848 67.448 138.846 67.4339 138.845ZM69.2197 138.966H70.9656C71.1288 138.966 71.259 138.833 71.259 138.671C71.259 138.509 71.1288 138.377 70.9656 138.377H69.2197C69.0581 138.377 68.9263 138.508 68.9263 138.671C68.9263 138.833 69.0565 138.966 69.2197 138.966ZM74.4589 138.966H72.7129C72.5498 138.966 72.4196 138.833 72.4196 138.671C72.4196 138.508 72.5514 138.377 72.7129 138.377H74.4589C74.622 138.377 74.7522 138.509 74.7522 138.671C74.7522 138.833 74.6205 138.966 74.4589 138.966ZM76.2047 138.966H77.9507C78.1122 138.966 78.244 138.833 78.244 138.671C78.244 138.509 78.1138 138.377 77.9507 138.377H76.2047C76.0432 138.377 75.9114 138.508 75.9114 138.671C75.9114 138.833 76.0416 138.966 76.2047 138.966ZM81.443 138.966H79.697C79.5339 138.966 79.4037 138.833 79.4037 138.671C79.4037 138.508 79.5354 138.377 79.697 138.377H81.443C81.6061 138.377 81.7363 138.509 81.7363 138.671C81.7363 138.833 81.6061 138.966 81.443 138.966ZM83.1888 138.966H84.9347C85.0979 138.966 85.2297 138.833 85.2281 138.671C85.2281 138.509 85.0979 138.377 84.9347 138.377H83.1888C83.0272 138.377 82.8955 138.508 82.8955 138.671C82.8955 138.833 83.0257 138.966 83.1888 138.966ZM88.4275 138.966H86.6816C86.5184 138.966 86.3882 138.833 86.3882 138.671C86.3882 138.508 86.52 138.377 86.6816 138.377H88.4275C88.5907 138.377 88.7209 138.509 88.7209 138.671C88.7209 138.833 88.5891 138.966 88.4275 138.966ZM90.1739 138.966H91.9198C92.0829 138.966 92.2131 138.833 92.2131 138.671C92.2131 138.509 92.0829 138.377 91.9198 138.377H90.1739C90.0123 138.377 89.8805 138.508 89.8805 138.671C89.8805 138.833 90.0107 138.966 90.1739 138.966ZM95.4121 138.966H93.6662C93.503 138.966 93.3728 138.833 93.3728 138.671C93.3728 138.508 93.5046 138.377 93.6662 138.377H95.4121C95.5752 138.377 95.7054 138.509 95.7054 138.671C95.707 138.833 95.5752 138.966 95.4121 138.966ZM97.1589 138.966H98.9049C99.0664 138.966 99.1982 138.833 99.1982 138.671C99.1982 138.509 99.068 138.377 98.9049 138.377H97.1589C96.9973 138.377 96.8656 138.508 96.8656 138.671C96.8656 138.833 96.9958 138.966 97.1589 138.966ZM102.397 138.966H100.651C100.488 138.966 100.357 138.833 100.357 138.671C100.357 138.508 100.489 138.377 100.651 138.377H102.397C102.56 138.377 102.69 138.509 102.69 138.671C102.69 138.833 102.56 138.966 102.397 138.966ZM104.143 138.966H105.889C106.052 138.966 106.184 138.833 106.182 138.671C106.182 138.509 106.052 138.377 105.889 138.377H104.143C103.981 138.377 103.85 138.508 103.85 138.671C103.85 138.833 103.98 138.966 104.143 138.966ZM109.382 138.966H107.636C107.473 138.966 107.343 138.833 107.343 138.671C107.343 138.508 107.475 138.377 107.636 138.377H109.382C109.545 138.377 109.676 138.509 109.676 138.671C109.676 138.833 109.544 138.966 109.382 138.966ZM111.128 138.966H112.874C113.036 138.966 113.167 138.833 113.167 138.671C113.167 138.509 113.037 138.377 112.874 138.377H111.128C110.966 138.377 110.835 138.508 110.835 138.671C110.835 138.833 110.965 138.966 111.128 138.966ZM116.366 138.966H114.62C114.457 138.966 114.327 138.833 114.327 138.671C114.327 138.508 114.458 138.377 114.62 138.377H116.366C116.529 138.377 116.659 138.509 116.659 138.671C116.661 138.833 116.529 138.966 116.366 138.966ZM118.112 138.966H119.858C120.021 138.966 120.152 138.833 120.151 138.671C120.151 138.509 120.021 138.377 119.858 138.377H118.112C117.95 138.377 117.818 138.508 117.818 138.671C117.818 138.833 117.948 138.966 118.112 138.966ZM123.351 138.966H121.605C121.442 138.966 121.312 138.833 121.312 138.671C121.312 138.508 121.444 138.377 121.605 138.377H123.351C123.514 138.377 123.645 138.509 123.645 138.671C123.645 138.833 123.513 138.966 123.351 138.966ZM126.548 139C126.198 139 125.954 138.973 125.885 138.966L125.885 138.966L125.885 138.966L125.885 138.966L125.884 138.966C125.874 138.965 125.867 138.964 125.866 138.964L125.099 138.967C124.936 138.967 124.805 138.835 124.805 138.673C124.805 138.509 124.937 138.379 125.099 138.379H125.907L125.922 138.38L125.946 138.382L125.946 138.382C126.062 138.394 126.386 138.426 126.832 138.407C126.994 138.402 127.132 138.527 127.138 138.689C127.146 138.851 127.019 138.989 126.857 138.995C126.746 138.999 126.642 139 126.548 139Z" fill="#4B369D"/>
<path d="M64.4413 133.707C64.278 133.707 64.1476 133.575 64.1476 133.413V132.529C64.1476 132.365 64.2796 132.234 64.4413 132.234C64.6031 132.234 64.735 132.367 64.735 132.529V133.413C64.7365 133.575 64.6046 133.707 64.4413 133.707Z" fill="#4B369D"/>
<path d="M93.2556 57.607H59.388C55.5369 57.607 52.3855 54.4467 52.3855 50.5849C52.3855 46.723 55.5369 43.5627 59.388 43.5627H93.2556C97.1067 43.5627 100.258 46.723 100.258 50.5849C100.26 54.4467 97.1083 57.607 93.2556 57.607Z" fill="#4B369D"/>
<path d="M92.3506 47.4854C92.4918 47.4712 92.6345 47.4649 92.7757 47.4681C94.6518 47.5074 96.1483 49.0694 96.1091 50.9524C96.0699 52.8338 94.5122 54.3329 92.6345 54.2951L92.6518 53.4771C94.0792 53.507 95.2636 52.3666 95.2934 50.9367C95.3232 49.5052 94.1859 48.3175 92.76 48.2876C92.6533 48.2861 92.5435 48.2892 92.4353 48.3018L92.3506 47.4854Z" fill="white"/>
<path d="M91.5346 53.8631L92.8303 54.6496L92.8617 53.1316L91.5346 53.8631Z" fill="white"/>
<path d="M91.0341 54.2354C90.893 54.2495 90.7502 54.2558 90.609 54.2527C88.7329 54.2134 87.2364 52.6513 87.2756 50.7684C87.3148 48.887 88.8725 47.3879 90.7502 47.4256L90.7329 48.2436C89.3055 48.2137 88.1211 49.3542 88.0913 50.7841C88.0615 52.2156 89.1988 53.4032 90.6247 53.4331C90.7314 53.4347 90.8412 53.4315 90.9494 53.419L91.0341 54.2354Z" fill="white"/>
<path d="M91.85 47.8588L90.5558 47.0739L90.5244 48.5903L91.85 47.8588Z" fill="white"/>
<path d="M227.692 132.956C227.488 133.059 227.17 133.117 226.704 133.117C214.177 133.115 201.655 133.112 189.126 133.147C182.852 133.164 176.577 133.118 170.302 133.132C167.134 133.139 163.965 133.162 160.796 133.214C159.212 133.241 157.627 133.276 156.043 133.32C154.878 133.353 153.464 133.568 152.355 133.082C151.977 132.917 151.619 132.695 151.469 132.286C151.445 132.19 151.439 132.093 151.45 131.994C151.572 131.147 152.867 129.725 153.375 129.025C154.418 127.586 155.485 126.021 157.356 125.522C158.445 125.233 159.591 125.237 160.722 125.244C180.54 125.244 200.357 125.354 220.174 125.415C221.416 125.418 222.95 125.602 223.814 126.554C224.913 127.762 225.88 129.071 226.77 130.427C227.302 131.237 228.586 132.511 227.692 132.956Z" fill="#978CFF"/>
<path d="M217.414 126.266H161.562C157.682 126.266 154.509 123.084 154.509 119.194V80.4728C154.509 76.5827 157.682 73.4004 161.562 73.4004H217.414C221.293 73.4004 224.467 76.5827 224.467 80.4728V119.192C224.467 123.084 221.293 126.266 217.414 126.266Z" fill="#A7ADFF"/>
<path d="M161.657 75.6986C158.634 75.6986 156.16 78.1793 156.16 81.2106V110.101C174.05 99.3353 191.547 87.959 208.441 75.7002H161.657V75.6986Z" fill="#EFF0FC"/>
<path d="M217.017 75.6986H208.443C191.547 87.9574 174.052 99.3353 156.162 110.1V116.345C156.162 119.376 158.636 121.857 161.659 121.857H217.019C220.042 121.857 222.516 119.376 222.516 116.345V81.2106C222.514 78.1793 220.04 75.6986 217.017 75.6986Z" fill="#E3E5FC"/>
<path d="M193.183 123.854H188.276C188.157 123.854 188.06 123.756 188.06 123.637C188.06 123.518 188.157 123.42 188.276 123.42H193.183C193.302 123.42 193.399 123.518 193.399 123.637C193.401 123.756 193.302 123.854 193.183 123.854Z" fill="#E3E5FC"/>
<path d="M161.18 75.1764C161.45 75.1764 161.668 74.9574 161.668 74.6872C161.668 74.417 161.45 74.198 161.18 74.198C160.911 74.198 160.693 74.417 160.693 74.6872C160.693 74.9574 160.911 75.1764 161.18 75.1764Z" fill="#E3E5FC"/>
<path d="M163.283 75.1764C163.552 75.1764 163.771 74.9574 163.771 74.6872C163.771 74.417 163.552 74.198 163.283 74.198C163.013 74.198 162.795 74.417 162.795 74.6872C162.795 74.9574 163.013 75.1764 163.283 75.1764Z" fill="white"/>
<path d="M165.403 75.1764C165.672 75.1764 165.891 74.9574 165.891 74.6872C165.891 74.417 165.672 74.198 165.403 74.198C165.133 74.198 164.915 74.417 164.915 74.6872C164.915 74.9574 165.133 75.1764 165.403 75.1764Z" fill="#4B369D"/>
<path d="M159.893 128.858H158.243C157.899 128.858 157.618 128.577 157.618 128.232C157.618 127.888 157.899 127.606 158.243 127.606H159.893C160.236 127.606 160.517 127.888 160.517 128.232C160.519 128.577 160.236 128.858 159.893 128.858Z" fill="#E3E5FC"/>
<path d="M164.717 128.858H163.067C162.723 128.858 162.442 128.577 162.442 128.232C162.442 127.888 162.723 127.606 163.067 127.606H164.717C165.06 127.606 165.341 127.888 165.341 128.232C165.341 128.577 165.06 128.858 164.717 128.858Z" fill="#E3E5FC"/>
<path d="M169.541 128.858H167.89C167.547 128.858 167.266 128.577 167.266 128.232C167.266 127.888 167.547 127.606 167.89 127.606H169.541C169.884 127.606 170.165 127.888 170.165 128.232C170.165 128.577 169.884 128.858 169.541 128.858Z" fill="#E3E5FC"/>
<path d="M174.364 128.858H172.714C172.37 128.858 172.089 128.577 172.089 128.232C172.089 127.888 172.37 127.606 172.714 127.606H174.364C174.708 127.606 174.988 127.888 174.988 128.232C174.988 128.577 174.708 128.858 174.364 128.858Z" fill="#E3E5FC"/>
<path d="M179.188 128.858H177.538C177.194 128.858 176.913 128.577 176.913 128.232C176.913 127.888 177.194 127.606 177.538 127.606H179.188C179.531 127.606 179.812 127.888 179.812 128.232C179.812 128.577 179.531 128.858 179.188 128.858Z" fill="#E3E5FC"/>
<path d="M184.012 128.858H182.361C182.018 128.858 181.737 128.577 181.737 128.232C181.737 127.888 182.018 127.606 182.361 127.606H184.012C184.355 127.606 184.636 127.888 184.636 128.232C184.636 128.577 184.355 128.858 184.012 128.858Z" fill="#E3E5FC"/>
<path d="M188.834 128.858H187.183C186.84 128.858 186.559 128.577 186.559 128.232C186.559 127.888 186.84 127.606 187.183 127.606H188.834C189.177 127.606 189.458 127.888 189.458 128.232C189.459 128.577 189.179 128.858 188.834 128.858Z" fill="#E3E5FC"/>
<path d="M193.657 128.858H192.007C191.663 128.858 191.382 128.577 191.382 128.232C191.382 127.888 191.663 127.606 192.007 127.606H193.657C194 127.606 194.281 127.888 194.281 128.232C194.283 128.577 194 128.858 193.657 128.858Z" fill="#E3E5FC"/>
<path d="M198.481 128.858H196.83C196.487 128.858 196.206 128.577 196.206 128.232C196.206 127.888 196.487 127.606 196.83 127.606H198.481C198.824 127.606 199.105 127.888 199.105 128.232C199.107 128.577 198.824 128.858 198.481 128.858Z" fill="#E3E5FC"/>
<path d="M203.305 128.858H201.655C201.311 128.858 201.03 128.577 201.03 128.232C201.03 127.888 201.311 127.606 201.655 127.606H203.305C203.649 127.606 203.929 127.888 203.929 128.232C203.931 128.577 203.649 128.858 203.305 128.858Z" fill="#E3E5FC"/>
<path d="M208.128 128.858H206.478C206.135 128.858 205.854 128.577 205.854 128.232C205.854 127.888 206.135 127.606 206.478 127.606H208.128C208.472 127.606 208.753 127.888 208.753 128.232C208.753 128.577 208.472 128.858 208.128 128.858Z" fill="#E3E5FC"/>
<path d="M212.952 128.858H211.302C210.958 128.858 210.677 128.577 210.677 128.232C210.677 127.888 210.958 127.606 211.302 127.606H212.952C213.295 127.606 213.576 127.888 213.576 128.232C213.576 128.577 213.295 128.858 212.952 128.858Z" fill="#E3E5FC"/>
<path d="M217.776 128.858H216.125C215.782 128.858 215.501 128.577 215.501 128.232C215.501 127.888 215.782 127.606 216.125 127.606H217.776C218.119 127.606 218.4 127.888 218.4 128.232C218.4 128.577 218.119 128.858 217.776 128.858Z" fill="#E3E5FC"/>
<path d="M217.156 83.4317H204.193C203.602 83.4317 203.118 82.9472 203.118 82.3542C203.118 81.7611 203.602 81.2766 204.193 81.2766H217.156C217.748 81.2766 218.231 81.7611 218.231 82.3542C218.231 82.9472 217.748 83.4317 217.156 83.4317Z" fill="#A7ADFF"/>
<path d="M217.157 88.3664H204.193C203.602 88.3664 203.119 87.8819 203.119 87.2888C203.119 86.6958 203.602 86.2113 204.193 86.2113H217.157C217.748 86.2113 218.231 86.6958 218.231 87.2888C218.231 87.8819 217.748 88.3664 217.157 88.3664Z" fill="#A7ADFF"/>
<path d="M83.5655 85.5523V126.724C83.5655 129.916 80.9615 132.527 77.7786 132.527H51.4077C48.2249 132.527 45.6209 129.916 45.6209 126.724V85.5523C45.6209 82.3605 48.2249 79.7493 51.4077 79.7493H77.7786C80.9615 79.7477 83.5655 82.3605 83.5655 85.5523Z" fill="#A7ADFF"/>
<path d="M47.7824 126.596C47.7824 127.086 47.8749 127.553 48.0349 127.989C48.6028 129.529 50.0758 130.636 51.7966 130.636H72.834H77.3816C79.5887 130.636 81.3959 128.818 81.3959 126.596V85.9063C81.3959 84.6714 80.8358 83.5608 79.9605 82.8184C69.6622 92.727 58.7223 101.991 47.7824 111.256V126.596H47.7824Z" fill="#E3E5FC"/>
<path d="M72.8561 81.8666H51.7951C49.588 81.8666 47.7809 83.685 47.7809 85.9062V92.2094V111.256C58.7208 101.992 69.6607 92.7269 79.9591 82.8183C79.2594 82.2252 78.3606 81.8666 77.3802 81.8666H72.8561V81.8666Z" fill="#EFF0FC"/>
<path d="M64.592 132.088C65.0001 132.088 65.3309 131.756 65.3309 131.347C65.3309 130.938 65.0001 130.606 64.592 130.606C64.184 130.606 63.8532 130.938 63.8532 131.347C63.8532 131.756 64.184 132.088 64.592 132.088Z" fill="#4B369D"/>
<path d="M75.7374 90.0873H62.7739C62.1825 90.0873 61.6993 89.6028 61.6993 89.0098C61.6993 88.4168 62.1825 87.9323 62.7739 87.9323H75.7374C76.3288 87.9323 76.8119 88.4168 76.8119 89.0098C76.8135 89.6028 76.3288 90.0873 75.7374 90.0873Z" fill="#A7ADFF"/>
<path d="M75.7373 95.0219H62.7738C62.1824 95.0219 61.6993 94.5374 61.6993 93.9444C61.6993 93.3513 62.1824 92.8668 62.7738 92.8668H75.7373C76.3287 92.8668 76.8118 93.3513 76.8118 93.9444C76.8134 94.5374 76.3287 95.0219 75.7373 95.0219Z" fill="#A7ADFF"/>
<path d="M48.8519 93.0354H34.8892C33.3017 93.0354 32.0028 94.3379 32.0028 95.9298V109.974C38.1536 104.437 44.422 99.035 50.9602 93.9651C50.4316 93.3972 49.6833 93.0354 48.8519 93.0354Z" fill="#EFF0FC"/>
<path d="M50.9575 93.9667C44.4209 99.0351 38.1509 104.438 32.0001 109.976V122.274V130.202C32.0001 131.794 33.299 133.096 34.8865 133.096H48.8492C50.4367 133.096 51.7356 131.794 51.7356 130.202V95.9314C51.7356 95.1874 51.4501 94.5094 50.9857 93.995C50.9779 93.984 50.9669 93.9761 50.9575 93.9667Z" fill="#E3E5FC"/>
<path fill-rule="evenodd" clip-rule="evenodd" d="M34.8884 93.0354H48.8512C50.4386 93.0354 51.7375 94.3379 51.7375 95.9298V130.2C51.7375 131.792 50.4386 133.095 48.8512 133.095H34.8884C33.3009 133.095 32.0021 131.792 32.0021 130.2V95.9298C32.0021 94.3379 33.3009 93.0354 34.8884 93.0354ZM47.5975 129.357C49.185 129.357 50.4839 128.055 50.4839 126.463V97.2764C50.4839 95.6844 49.185 94.382 47.5975 94.382H36.14C34.5525 94.382 33.2536 95.6844 33.2536 97.2764V126.463C33.2536 128.055 34.5525 129.357 36.14 129.357H47.5975Z" fill="#978CFF"/>
<path d="M43.7275 93.9519H40.0097C39.9187 93.9519 39.845 93.878 39.845 93.787C39.845 93.6959 39.9187 93.6221 40.0097 93.6221H43.7275C43.8185 93.6221 43.8922 93.6959 43.8922 93.787C43.8922 93.878 43.8185 93.9519 43.7275 93.9519Z" fill="#E3E5FC"/>
<path d="M41.8688 132.129C42.4345 132.129 42.8931 131.669 42.8931 131.102C42.8931 130.534 42.4345 130.074 41.8688 130.074C41.303 130.074 40.8444 130.534 40.8444 131.102C40.8444 131.669 41.303 132.129 41.8688 132.129Z" fill="#4B369D"/>
<path d="M48.3511 120.466H35.3876C34.7962 120.466 34.313 119.982 34.313 119.389C34.313 118.796 34.7962 118.311 35.3876 118.311H48.3511C48.9425 118.311 49.4256 118.796 49.4256 119.389C49.4256 119.982 48.9425 120.466 48.3511 120.466Z" fill="white"/>
<path d="M48.3505 125.403H35.387C34.7957 125.403 34.3125 124.918 34.3125 124.325C34.3125 123.732 34.7957 123.248 35.387 123.248H48.3505C48.9419 123.248 49.4251 123.732 49.4251 124.325C49.4251 124.917 48.9419 125.403 48.3505 125.403Z" fill="white"/>
</svg>
