<svg width="260" height="160" viewBox="0 0 260 160" fill="none" xmlns="http://www.w3.org/2000/svg">
<rect width="260" height="160" fill="#F5F5F7"/>
<path d="M203.034 114.613H81.4503C78.1688 114.613 75.4844 111.929 75.4844 108.647V19.9659C75.4844 16.6844 78.1688 14 81.4503 14H203.034C206.316 14 209 16.6844 209 19.9659V108.647C209.001 111.927 206.316 114.613 203.034 114.613Z" fill="#A7ADFF"/>
<path d="M199.305 106.22H84.6041C81.3226 106.22 78.6382 103.536 78.6382 100.254V24.3407C78.6382 21.0593 81.3226 18.3749 84.6041 18.3749H199.305C202.587 18.3749 205.271 21.0593 205.271 24.3407V100.254C205.271 103.536 202.587 106.22 199.305 106.22Z" fill="#E3E5FC"/>
<path d="M149.294 110.023H139.93C139.702 110.023 139.516 109.836 139.516 109.609C139.516 109.381 139.703 109.195 139.93 109.195H149.294C149.523 109.195 149.708 109.382 149.708 109.609C149.708 109.837 149.523 110.023 149.294 110.023Z" fill="#E3E5FC"/>
<path d="M82.6083 17.3797C83.1228 17.3797 83.5398 16.9627 83.5398 16.4482C83.5398 15.9338 83.1228 15.5167 82.6083 15.5167C82.0939 15.5167 81.6768 15.9338 81.6768 16.4482C81.6768 16.9627 82.0939 17.3797 82.6083 17.3797Z" fill="#E3E5FC"/>
<path d="M86.6186 17.3797C87.133 17.3797 87.5501 16.9627 87.5501 16.4482C87.5501 15.9338 87.133 15.5167 86.6186 15.5167C86.1041 15.5167 85.6871 15.9338 85.6871 16.4482C85.6871 16.9627 86.1041 17.3797 86.6186 17.3797Z" fill="white"/>
<path d="M90.6654 17.3797C91.1799 17.3797 91.5969 16.9627 91.5969 16.4482C91.5969 15.9338 91.1799 15.5167 90.6654 15.5167C90.151 15.5167 89.7339 15.9338 89.7339 16.4482C89.7339 16.9627 90.151 17.3797 90.6654 17.3797Z" fill="#4B369D"/>
<path d="M113.547 68.14H90.842C90.2329 68.14 89.734 67.6411 89.734 67.0321C89.734 66.423 90.2329 65.9241 90.842 65.9241H113.547C114.156 65.9241 114.655 66.423 114.655 67.0321C114.655 67.6411 114.156 68.14 113.547 68.14Z" fill="white"/>
<path d="M113.547 73.2129H90.8414C90.2324 73.2129 89.7334 72.714 89.7334 72.1049C89.7334 71.4959 90.2324 70.9969 90.8414 70.9969H113.547C114.156 70.9969 114.654 71.4959 114.654 72.1049C114.654 72.714 114.156 73.2129 113.547 73.2129Z" fill="white"/>
<path d="M113.547 78.2845H90.8414C90.2324 78.2845 89.7334 77.7855 89.7334 77.1765C89.7334 76.5674 90.2324 76.0685 90.8414 76.0685H113.547C114.156 76.0685 114.654 76.5674 114.654 77.1765C114.654 77.7869 114.156 78.2845 113.547 78.2845Z" fill="white"/>
<path d="M113.547 84.0034H90.8414C90.2324 84.0034 89.7334 83.5045 89.7334 82.8955C89.7334 82.2864 90.2324 81.7875 90.8414 81.7875H113.547C114.156 81.7875 114.654 82.2864 114.654 82.8955C114.654 83.5045 114.156 84.0034 113.547 84.0034Z" fill="white"/>
<path d="M113.547 89.075H90.8414C90.2324 89.075 89.7334 88.5761 89.7334 87.967C89.7334 87.3579 90.2324 86.859 90.8414 86.859H113.547C114.156 86.859 114.654 87.3579 114.654 87.967C114.654 88.5774 114.156 89.075 113.547 89.075Z" fill="white"/>
<path d="M113.547 94.1479H90.8414C90.2324 94.1479 89.7334 93.6489 89.7334 93.0399C89.7334 92.4308 90.2324 91.9319 90.8414 91.9319H113.547C114.156 91.9319 114.654 92.4308 114.654 93.0399C114.654 93.6489 114.156 94.1479 113.547 94.1479Z" fill="white"/>
<path d="M147.523 68.14H124.818C124.209 68.14 123.71 67.6411 123.71 67.0321C123.71 66.423 124.209 65.9241 124.818 65.9241H147.523C148.132 65.9241 148.631 66.423 148.631 67.0321C148.631 67.6411 148.132 68.14 147.523 68.14Z" fill="white"/>
<path d="M147.523 73.2129H124.818C124.209 73.2129 123.71 72.714 123.71 72.1049C123.71 71.4959 124.209 70.9969 124.818 70.9969H147.523C148.132 70.9969 148.631 71.4959 148.631 72.1049C148.631 72.714 148.132 73.2129 147.523 73.2129Z" fill="white"/>
<path d="M147.523 78.2845H124.818C124.209 78.2845 123.71 77.7855 123.71 77.1765C123.71 76.5674 124.209 76.0685 124.818 76.0685H147.523C148.132 76.0685 148.631 76.5674 148.631 77.1765C148.631 77.7869 148.132 78.2845 147.523 78.2845Z" fill="white"/>
<path d="M147.523 84.0034H124.818C124.209 84.0034 123.71 83.5045 123.71 82.8955C123.71 82.2864 124.209 81.7875 124.818 81.7875H147.523C148.132 81.7875 148.631 82.2864 148.631 82.8955C148.631 83.5045 148.132 84.0034 147.523 84.0034Z" fill="white"/>
<path d="M147.523 89.075H124.818C124.209 89.075 123.71 88.5761 123.71 87.967C123.71 87.3579 124.209 86.859 124.818 86.859H147.523C148.132 86.859 148.631 87.3579 148.631 87.967C148.631 88.5774 148.132 89.075 147.523 89.075Z" fill="white"/>
<path d="M147.523 94.1479H124.818C124.209 94.1479 123.71 93.6489 123.71 93.0399C123.71 92.4308 124.209 91.9319 124.818 91.9319H147.523C148.132 91.9319 148.631 92.4308 148.631 93.0399C148.631 93.6489 148.132 94.1479 147.523 94.1479Z" fill="white"/>
<path d="M177.979 46.0811C175.365 45.427 174.711 37.5848 172.097 37.5848C166.354 38.1063 164.364 45.7162 161.13 51.422C161.553 53.7733 163.617 55.574 166.086 55.574H189.098C191.87 55.574 194.137 53.3062 194.137 50.5343V34.0353C193.338 34.099 192.522 34.3856 191.705 34.9694C187.13 38.8918 183.862 47.3882 177.979 46.0811Z" fill="#A7ADFF"/>
<path d="M189.138 27.248H166.127C163.355 27.248 161.087 29.5158 161.087 32.2877V50.5343C161.087 50.8368 161.119 51.1327 161.171 51.422C164.403 45.7149 166.395 38.1063 172.138 37.5848C174.752 37.5848 175.406 45.4283 178.02 46.0811C183.902 47.3882 187.17 38.8918 191.746 34.9694C192.563 34.3856 193.379 34.0976 194.178 34.0353V32.2877C194.178 29.5158 191.91 27.248 189.138 27.248Z" fill="white"/>
<path d="M180.901 38.9741C182.503 38.9741 183.802 37.6754 183.802 36.0734C183.802 34.4714 182.503 33.1727 180.901 33.1727C179.299 33.1727 178.001 34.4714 178.001 36.0734C178.001 37.6754 179.299 38.9741 180.901 38.9741Z" fill="#A7ADFF"/>
<path d="M95.7013 56.1539H142.664C145.945 56.1539 148.63 53.4695 148.63 50.188V33.2166C148.63 29.9351 145.945 27.2507 142.664 27.2507H95.7013C92.4198 27.2507 89.7354 29.9351 89.7354 33.2166V50.188C89.7341 53.4682 92.4198 56.1539 95.7013 56.1539Z" fill="white"/>
<path d="M167.054 77.8584H188.17C191.451 77.8584 194.136 75.174 194.136 71.8925C194.136 68.611 191.451 65.9266 188.17 65.9266H167.054C163.773 65.9266 161.088 68.611 161.088 71.8925C161.088 75.1727 163.773 77.8584 167.054 77.8584Z" fill="white"/>
<path d="M167.054 92.8261H188.17C191.451 92.8261 194.136 90.1418 194.136 86.8603C194.136 83.5788 191.451 80.8944 188.17 80.8944H167.054C163.773 80.8944 161.088 83.5788 161.088 86.8603C161.088 90.1418 163.773 92.8261 167.054 92.8261Z" fill="white"/>
<path d="M144.613 144.982C168.866 144.982 188.528 143.641 188.528 141.987C188.528 140.333 168.866 138.993 144.613 138.993C120.36 138.993 100.698 140.333 100.698 141.987C100.698 143.641 120.36 144.982 144.613 144.982Z" fill="#E3E5FC"/>
<path d="M93.4539 133.771H71.0792C69.8253 133.771 68.8009 132.745 68.8009 131.493V130.634C68.8009 129.38 69.8266 128.356 71.0792 128.356H93.4539C94.7079 128.356 95.7323 129.382 95.7323 130.634V131.493C95.7323 132.745 94.7065 133.771 93.4539 133.771Z" fill="#A7ADFF"/>
<path d="M93.4536 139.659H71.0789C69.825 139.659 68.8006 138.633 68.8006 137.38V136.522C68.8006 135.268 69.8263 134.244 71.0789 134.244H93.4536C94.7075 134.244 95.7319 135.269 95.7319 136.522V137.38C95.7319 138.634 94.7062 139.659 93.4536 139.659Z" fill="#A7ADFF"/>
<path d="M93.4536 145.606H71.0789C69.825 145.606 68.8006 144.58 68.8006 143.328V142.469C68.8006 141.215 69.8263 140.191 71.0789 140.191H93.4536C94.7075 140.191 95.7319 141.217 95.7319 142.469V143.328C95.7319 144.58 94.7062 145.606 93.4536 145.606Z" fill="#A7ADFF"/>
<path d="M70.9963 131.641C71.3392 131.641 71.6173 131.363 71.6173 131.02C71.6173 130.677 71.3392 130.399 70.9963 130.399C70.6533 130.399 70.3753 130.677 70.3753 131.02C70.3753 131.363 70.6533 131.641 70.9963 131.641Z" fill="white"/>
<path d="M93.3698 131.641C93.7128 131.641 93.9908 131.363 93.9908 131.02C93.9908 130.677 93.7128 130.399 93.3698 130.399C93.0268 130.399 92.7488 130.677 92.7488 131.02C92.7488 131.363 93.0268 131.641 93.3698 131.641Z" fill="white"/>
<path d="M71.1208 137.318C71.4638 137.318 71.7418 137.04 71.7418 136.697C71.7418 136.354 71.4638 136.076 71.1208 136.076C70.7778 136.076 70.4998 136.354 70.4998 136.697C70.4998 137.04 70.7778 137.318 71.1208 137.318Z" fill="white"/>
<path d="M93.4943 137.318C93.8373 137.318 94.1153 137.04 94.1153 136.697C94.1153 136.354 93.8373 136.076 93.4943 136.076C93.1514 136.076 92.8733 136.354 92.8733 136.697C92.8733 137.04 93.1514 137.318 93.4943 137.318Z" fill="white"/>
<path d="M71.1208 143.486C71.4638 143.486 71.7418 143.208 71.7418 142.865C71.7418 142.522 71.4638 142.244 71.1208 142.244C70.7778 142.244 70.4998 142.522 70.4998 142.865C70.4998 143.208 70.7778 143.486 71.1208 143.486Z" fill="white"/>
<path d="M93.4943 143.486C93.8373 143.486 94.1153 143.208 94.1153 142.865C94.1153 142.522 93.8373 142.244 93.4943 142.244C93.1514 142.244 92.8733 142.522 92.8733 142.865C92.8733 143.208 93.1514 143.486 93.4943 143.486Z" fill="white"/>
<path d="M109.474 33.7619C109.551 33.7088 109.626 33.6558 109.703 33.604C112.118 31.9626 115.008 30.6025 117.873 31.1638C122.923 32.1524 125.244 37.7321 128.466 41.0945C130.777 43.5069 134.356 45.3141 137.819 44.9559C140.721 44.656 141.231 41.5138 140.536 39.1479C140.278 38.2748 139.88 37.4388 139.158 36.8576C138.494 36.3216 136.852 35.5825 135.988 36.0522C137.477 35.2441 139.413 35.6462 140.741 36.6971C145.233 40.2519 144.1 47.8552 139.286 50.5276C135.557 52.5963 131.004 50.7758 128.064 48.1564C124.741 45.196 123.71 40.6036 120.617 37.4627C119.789 36.6228 118.859 35.885 117.605 35.9898C115.122 36.1982 114.715 38.8295 113.048 40.1418C112.618 40.4801 112.052 40.6885 111.52 40.5624C111.128 40.4695 110.801 40.2121 110.456 40.0038C108.888 39.0524 104.427 39.2196 106.692 36.2658C107.457 35.2706 108.444 34.4771 109.474 33.7619Z" fill="url(#paint0_linear_75_2794)"/>
<path d="M82.6549 61.4164C81.4885 62.7155 79.9798 64.2706 79.3004 65.9333C79.246 66.0673 79.1995 66.2252 79.2659 66.3539C80.1417 68.0391 93.1973 55.8115 94.584 54.5416C97.5019 51.8678 100.219 49.8164 102.749 46.7485C103.234 46.1594 103.732 45.5238 103.854 44.7542C103.926 44.2765 101.696 45.269 101.264 45.4893C97.953 47.1718 94.0665 50.1242 91.3622 52.6255C88.3434 55.4187 85.4136 58.3446 82.6549 61.4164Z" fill="#4B369D"/>
<path d="M108.207 39.761C108.132 39.136 107.981 38.5269 107.742 37.9537C107.175 36.5909 106.143 35.2919 104.625 34.996C107.088 36.5471 104.728 39.5699 102.955 40.7946C102.518 41.0972 102.04 41.3573 101.516 41.5696C100.187 42.107 98.4253 42.5223 98.087 44.1438C102.435 44.2593 105.677 42.4719 108.207 39.761Z" fill="url(#paint1_linear_75_2794)"/>
<path d="M98.0872 44.1425C98.0846 44.1571 98.0792 44.1704 98.0766 44.1849C97.583 46.7831 99.2602 49.3958 102.124 48.9194C106.111 48.2546 108.684 43.6767 108.208 39.7596C105.677 42.4719 102.436 44.2593 98.0872 44.1425Z" fill="#A7ADFF"/>
<path d="M59.4125 133.433L60.2578 141.43L57.6132 141.987L57.2271 133.591C57.2271 133.591 58.627 133.08 59.4125 133.433Z" fill="#EAC2AB"/>
<path d="M70.3594 145.671C70.3594 145.671 68.3783 146.11 64.6894 145.974C61.0006 145.837 56.903 145.517 56.2223 144.892C55.5403 144.266 55.5787 139.598 56.7982 139.734C58.0176 139.87 58.295 141.688 60.6211 140.353C62.6141 139.209 63.8017 141.917 66.9333 142.954C70.0635 143.99 71.332 144.405 70.3594 145.671Z" fill="url(#paint2_linear_75_2794)"/>
<path d="M66.3907 135.643C66.2673 135.355 65.9436 135.141 65.6623 134.916C63.092 132.868 63.7196 129.743 64.131 127.012C65.1063 120.534 64.062 114.004 63.6719 107.525C63.2924 101.2 63.9253 94.8537 65.3703 88.6888C65.8958 86.4489 66.6203 82.9856 63.1557 83.6411C61.5143 83.9516 59.8941 83.8906 58.258 83.604C57.3968 83.4527 58.2753 83.1727 57.3968 83.4527C54.4046 84.4081 53.286 90.0635 53.9004 92.034C55.1238 95.9577 55.5219 99.7235 55.7209 103.878C56.0022 109.77 56.9828 115.668 56.2835 121.514C55.9412 124.379 55.5431 127.236 55.161 130.096C54.938 131.764 53.5434 135.418 54.4789 136.928C55.7634 139.001 61.4864 137.244 63.3985 137.197C64.8356 137.16 66.8101 136.621 66.3907 135.643Z" fill="#4B369D"/>
<path d="M75.7719 116.162L74.0098 124.118L71.2896 123.802L73.621 115.61C73.621 115.611 75.131 115.568 75.7719 116.162Z" fill="#EAC2AB"/>
<path d="M84.6004 127.979C84.6004 127.979 82.5968 128.442 78.8588 128.339C75.1195 128.235 70.9649 127.95 70.2683 127.322C69.5716 126.695 69.5663 121.964 70.803 122.09C72.0397 122.216 72.3383 124.055 74.6816 122.681C76.6893 121.504 77.9193 124.236 81.1026 125.256C84.2859 126.277 85.5744 126.688 84.6004 127.979Z" fill="url(#paint3_linear_75_2794)"/>
<path d="M85.6457 91.0481C83.8902 88.3942 77.8898 88.4234 72.3844 89.1015L65.5521 88.6981L64.6219 86.1079C64.6219 86.1079 53.7517 89.4279 53.7397 89.4319C54.0834 89.3761 54.029 93.7563 54.2281 94.1371C55.7845 97.1188 60.2098 99.5842 63.7594 99.6306C67.9764 99.6864 71.9545 98.4709 75.8955 97.1692C83.0516 94.8072 73.016 109.723 70.739 114.447C68.462 119.171 70.9646 118.922 76.6465 118.673C82.3297 118.425 79.6454 118.798 80.614 114.852C81.584 110.904 89.1183 96.2987 85.6457 91.0481Z" fill="#5A54FF"/>
<path d="M64.1651 55.5502C64.1651 55.5502 63.349 61.5293 63.3477 61.5293C61.904 61.9539 60.3913 62.7647 58.8706 62.762C58.9396 61.6527 60.025 60.3842 60.524 59.3372C61.129 58.0673 61.555 56.7524 61.4886 55.3286C61.3135 51.6079 64.1651 55.5502 64.1651 55.5502Z" fill="#D4A79A"/>
<path d="M71.3665 43.0544C71.6146 43.1367 72.3604 45.9551 71.0348 47.7783C69.7092 49.6015 70.4788 49.3534 69.1824 50.5954C67.886 51.8387 66.9744 52.1081 66.9744 52.1081L65.4829 52.6667L65.6488 49.6002L67.1296 44.7104L71.8004 43.0544" fill="#27197A"/>
<path d="M67.8475 43.7114C67.8448 43.718 70.1948 45.3116 68.9488 49.1239C67.6166 53.2042 65.6939 56.621 64.4612 56.2667C61.051 55.2888 60.0372 52.7398 59.0075 50.5384C57.7456 47.8394 61.189 41.79 61.189 41.79L64.0764 40.5267L67.8475 43.7114Z" fill="#EAC2AB"/>
<path d="M73.1608 42.7878C73.5443 41.8364 73.1157 40.0477 72.4549 39.3869C72.2001 39.1321 71.8671 38.9556 71.5194 38.9609C71.258 38.9649 70.9926 39.0697 70.7392 39.006C69.9775 38.8136 69.9789 38.1648 69.2809 37.8742C68.7607 37.6579 68.2074 38.0998 67.6514 38.1833C67.2321 38.2457 66.8155 38.0998 66.4081 37.979C65.2629 37.638 64.2293 36.9904 63.0457 36.7476C62.0478 36.5433 60.9876 36.5698 60.0349 36.9838C59.041 37.4164 58.282 38.2988 57.8282 39.3537C57.5575 39.984 57.4288 40.7005 57.5482 41.3786C57.45 40.8213 56.419 41.3268 56.2425 41.5285C55.5485 42.3207 53.7996 44.6389 54.0504 45.6473C54.2494 46.4461 53.6324 47.1693 53.8076 47.9787C54.0159 48.9421 56.5357 49.4981 56.9869 50.3738C57.5044 51.3783 58.6495 51.9622 59.6912 51.7817C59.4483 50.8913 59.2082 49.9811 59.2268 49.0469C59.2453 48.1127 58.3616 43.8162 63.0085 43.2867C64.8556 43.0757 66.9216 44.7729 68.7368 44.9958C69.5994 45.102 70.4791 45.0051 71.3177 44.7424C71.9653 44.5393 72.6526 43.6556 73.0533 43.0001C73.0958 42.9324 73.1316 42.8621 73.1608 42.7878Z" fill="#4B369D"/>
<path d="M92.8586 55.8195C92.7458 55.7717 92.6277 55.8713 92.5454 55.9628C91.797 56.7908 91.0473 57.6175 90.2989 58.4455C90.153 58.6074 90.0004 58.7733 89.804 58.8675C89.6076 58.9617 89.3528 58.9657 89.1896 58.821C88.9932 58.6472 88.9999 58.3433 89.0224 58.0806C89.0556 57.6838 89.7138 56.897 89.0848 56.7232C88.1918 57.1571 87.3372 58.9988 87.0732 59.925C86.7215 60.9096 87.5177 61.6089 86.9803 62.4581C85.9824 64.0358 85.0111 65.6255 83.9337 67.1501C83.3684 67.949 82.7872 68.7358 82.2034 69.5187C81.9393 69.873 80.8379 71.8223 80.4531 71.8621C79.174 73.5897 77.9373 75.3837 76.5599 77.0358C76.0345 77.666 72.0192 74.0316 72.0192 74.0316C68.4988 71.3101 67.903 69.1631 67.903 69.1631L64.8232 69.9539C64.8232 69.9539 65.9166 72.7405 68.0623 74.577C70.403 76.5793 73.3952 79.7414 75.0353 80.9741C76.6767 82.2068 76.7908 81.6084 77.4105 81.0139C78.7149 79.7573 79.6729 77.8346 80.6774 76.3418C82.4104 73.7649 84.1247 71.1734 85.7821 68.5461C86.5849 67.2736 87.4328 65.9148 88.1666 64.5587C88.8698 63.2596 89.4563 62.5444 90.7448 61.7894C91.8289 61.1538 92.4353 60.1586 92.629 58.9046C92.767 58.0103 92.6901 57.0881 92.9369 56.2096C92.9767 56.0703 92.9926 55.8752 92.8586 55.8195Z" fill="#EAC2AB"/>
<path d="M65.4086 73.1359C65.0317 69.5293 66.774 63.789 64.6721 60.8618C64.4572 60.5619 64.2249 60.262 63.9118 60.0656C59.9575 57.5843 57.2214 61.4403 55.9582 64.8333C54.8621 67.7751 54.9975 70.482 54.9165 73.5512C54.7799 78.7236 53.5763 83.7553 52.0398 88.6715C51.4917 90.4257 51.3458 92.4679 52.897 92.7346C54.9922 93.0942 55.4433 90.5133 57.4417 89.8472C59.2675 89.2381 60.7431 89.6123 62.7388 89.7211C63.7287 89.7755 66.9611 89.124 66.7634 87.2836C66.2963 82.9206 65.5943 79.1588 65.5718 76.1201C65.5651 75.1342 65.5134 74.135 65.4086 73.1359Z" fill="url(#paint4_linear_75_2794)"/>
<path d="M68.6467 68.6854C68.6467 68.6854 64.3674 59.9038 61.6379 62.616C58.9097 65.3283 65.267 74.1842 65.267 74.1842L69.6791 69.666L68.6467 68.6854Z" fill="url(#paint5_linear_75_2794)"/>
<path d="M68.433 43.3171C69.4534 42.7333 69.7493 41.4143 69.8528 40.2427C69.9656 38.9701 69.9444 37.2504 68.8722 36.3534C68.4582 36.0071 67.9513 35.7921 67.4338 35.6369C64.8981 34.8739 61.8315 35.0862 59.3661 36.0217C56.8516 36.9758 54.9872 39.1532 54.0956 41.6532C53.647 42.9098 53.4255 44.2486 53.4347 45.5822C53.444 46.9914 54.0717 48.4577 52.9783 49.6227C53.371 49.624 53.7638 49.5749 54.1446 49.4767C52.7527 49.835 50.5102 49.912 50.4531 51.905C50.4306 52.6985 50.9467 53.3898 51.382 54.0546C51.8172 54.7194 52.202 55.5461 51.8995 56.2812C51.5187 57.2087 50.1957 57.5737 50.0245 58.5635C49.8215 59.7392 50.9322 60.2779 51.3793 61.1935C51.9433 62.3479 51.4032 63.6908 51.2732 64.8877C51.1577 65.9492 52.137 66.4375 52.7766 67.0718C54.6303 68.9083 54.6051 70.9969 52.5789 73.0257C52.5377 73.0669 52.5537 73.1465 52.5829 73.1969C52.6134 73.25 52.6797 73.2725 52.7394 73.2885C55.3601 73.9731 58.7624 71.4427 59.3661 68.9176C59.6381 67.7804 58.9441 66.7162 59.248 65.6241C59.4908 64.751 60.3799 64.2574 61.1468 63.777C62.9276 62.6624 62.5746 59.8228 62.3477 57.7342C62.15 55.9123 62.6224 55.5647 61.5847 54.0546C61.0447 53.2691 60.6214 52.4092 60.2631 51.5255C59.7867 50.3499 59.2321 51.1367 59.2732 49.8695C59.3183 48.4789 60.007 47.1891 61.1336 46.3744C61.7174 45.9524 62.4074 45.6565 63.1173 45.5291C63.8697 45.3938 64.6367 45.2664 65.2218 44.737C65.7685 44.242 66.5236 43.1208 67.3701 43.1964C68.4264 43.2906 69.6379 43.0265 70.1859 42.1203" fill="#4B369D"/>
<defs>
<linearGradient id="paint0_linear_75_2794" x1="106.063" y1="41.782" x2="143.57" y2="41.782" gradientUnits="userSpaceOnUse">
<stop stop-color="#34BCF6"/>
<stop offset="1" stop-color="#63DDF8"/>
</linearGradient>
<linearGradient id="paint1_linear_75_2794" x1="98.087" y1="39.8208" x2="108.207" y2="39.8208" gradientUnits="userSpaceOnUse">
<stop stop-color="#32B3EB"/>
<stop offset="1" stop-color="#5ED1EB"/>
</linearGradient>
<linearGradient id="paint2_linear_75_2794" x1="55.7783" y1="143.036" x2="70.68" y2="143.036" gradientUnits="userSpaceOnUse">
<stop stop-color="#34BCF6"/>
<stop offset="1" stop-color="#63DDF8"/>
</linearGradient>
<linearGradient id="paint3_linear_75_2794" x1="69.7969" y1="125.391" x2="84.9187" y2="125.391" gradientUnits="userSpaceOnUse">
<stop stop-color="#34BCF6"/>
<stop offset="1" stop-color="#63DDF8"/>
</linearGradient>
<linearGradient id="paint4_linear_75_2794" x1="51.6577" y1="76.9306" x2="66.772" y2="76.9306" gradientUnits="userSpaceOnUse">
<stop stop-color="#34BCF6"/>
<stop offset="1" stop-color="#63DDF8"/>
</linearGradient>
<linearGradient id="paint5_linear_75_2794" x1="60.9575" y1="68.468" x2="69.6791" y2="68.468" gradientUnits="userSpaceOnUse">
<stop stop-color="#32B3EB"/>
<stop offset="1" stop-color="#5ED1EB"/>
</linearGradient>
</defs>
</svg>
