<svg width="260" height="160" viewBox="0 0 260 160" fill="none" xmlns="http://www.w3.org/2000/svg">
<path d="M0 0H260V160H0V0Z" fill="#F5F5F7"/>
<path d="M110.156 57.8672L105.744 70.9902L94.242 72.1042C94.242 72.1042 103.033 64.6782 104.244 56.2124C105.454 47.7465 110.156 57.8672 110.156 57.8672Z" fill="#D4A79A"/>
<path d="M127.004 33.2053C127.004 33.2053 128.431 36.8483 123.663 45.4574C118.896 54.0666 113.126 60.9436 110.51 59.6123C103.278 55.9323 102.101 49.7459 100.742 44.3386C99.0747 37.7079 109.412 25.5669 109.412 25.5669L116.436 23.9684L127.004 33.2053Z" fill="#EAC2AB"/>
<path d="M136.441 33.1731C137.242 30.9806 137.114 28.5192 135.519 26.1496C135.057 25.4639 134.385 24.923 133.603 24.7845C133.015 24.6799 132.375 24.8022 131.833 24.5463C130.206 23.7832 130.703 21.1995 129.262 20.2433C128.186 19.5302 126.756 20.2868 125.472 20.2337C124.502 20.1934 123.632 19.6847 122.771 19.2356C120.347 17.9719 118.306 16.0627 115.756 15.0035C113.603 14.11 111.212 13.7108 108.898 14.2324C106.482 14.7765 104.396 16.4362 102.923 18.6158C102.043 19.9198 101.445 21.478 101.421 23.0588C101.44 21.7597 98.9102 22.4519 98.4245 22.8319C96.5248 24.3161 95.1637 28.31 95.292 30.6908C95.393 32.5759 95.9268 34.3708 95.9717 36.2672C96.0695 40.4156 95.6254 47.3216 101.743 47.4342C101.581 45.3222 101.435 43.1699 101.879 41.074C102.673 37.3409 104.326 32.4069 107.759 30.2852C115.01 25.8084 117.45 37.4536 122.934 39.6574C128.04 41.7131 134.624 38.1377 136.441 33.1731Z" fill="#4B369D"/>
<path d="M103.758 34.3708C103.758 34.3708 101.826 30.3817 100.778 35.3512C99.7307 40.3222 101.998 42.043 101.998 42.043L103.758 34.3708Z" fill="#EAC2AB"/>
<path d="M115.997 104.657C115.473 97.848 114.535 90.6458 112.965 83.8299C111.752 78.5611 110.612 71.346 105.45 68.3438C95.7816 62.7192 89.56 76.6052 87.8527 83.9136C85.9065 92.2395 86.1534 101.011 86.0636 109.509C85.9834 117.13 84.9158 125.528 85.9482 133.019C86.1309 134.34 86.6118 135.696 87.6426 136.538C90.2637 138.679 92.9666 135.841 95.1724 134.578C97.2356 133.397 99.4207 133.592 101.612 132.798C103.537 132.101 104.485 130.655 106.096 129.532C110.322 126.583 114.871 131.327 119.452 130.438C129.407 128.506 121.806 131.232 117.8 111.148C117.392 109.102 116.183 107.082 115.997 104.657Z" fill="url(#paint0_linear_75_2619)"/>
<path d="M141.878 89.6478C145.66 87.1993 147.125 81.7035 150.623 78.7576C152.048 77.5583 153.738 76.8467 155.413 76.1883C157.805 75.2466 160.221 74.3789 162.654 73.5869C162.502 74.8361 161.543 75.7617 160.548 76.3139C159.552 76.8661 158.451 77.18 157.524 77.8722C157.115 78.1764 156.74 78.566 156.529 79.0666C156.053 80.1919 156.514 81.5441 156.314 82.7724C155.937 85.076 153.584 86.0161 151.78 87.1429C148.056 89.4691 145.65 94.0522 141.769 96.0161C141.769 96.0161 112.644 120.3 109.053 119.628C105.462 118.957 100.506 85.8358 100.506 85.8358C100.506 85.8358 97.0886 68.7656 106.068 76.9433C115.047 85.121 109.519 112.286 113.956 109.482C118.391 106.676 141.878 89.6478 141.878 89.6478Z" fill="#EAC2AB"/>
<path d="M112.533 90.4654C112.533 90.4654 111.502 69.4255 102.811 71.1625C94.1208 72.8994 99.7013 96.5166 99.7013 96.5166L113.882 93.4677L112.533 90.4654Z" fill="url(#paint1_linear_75_2619)"/>
<path d="M132.131 141.942H73.4764C70.8665 141.942 68.7312 139.797 68.7312 137.177V130.459C68.7312 127.838 70.8665 125.694 73.4764 125.694H132.131C134.741 125.694 136.876 127.838 136.876 130.459V137.177C136.874 139.797 134.739 141.942 132.131 141.942Z" fill="#E3E5FC"/>
<path d="M101.396 146H62.1726C60.4268 146 59 144.566 59 142.814V138.323C59 136.57 60.4284 135.137 62.1726 135.137H101.396C103.142 135.137 104.568 136.572 104.568 138.323V142.814C104.568 144.567 103.14 146 101.396 146Z" fill="url(#paint2_linear_75_2619)"/>
<path d="M99.3703 140.836L99.226 141.013C99.1699 141.082 99.0673 141.092 98.9984 141.036L95.7265 138.36C95.6575 138.304 95.6479 138.201 95.704 138.131L95.8483 137.954C95.9044 137.885 96.007 137.876 96.0759 137.932L99.3479 140.607C99.4152 140.664 99.4264 140.767 99.3703 140.836Z" fill="white"/>
<path d="M99.3702 140.696L99.2259 140.519C99.1698 140.45 99.0672 140.44 98.9983 140.496L95.7264 143.172C95.6574 143.228 95.6478 143.331 95.7039 143.4L95.8482 143.577C95.9043 143.647 96.0069 143.656 96.0758 143.6L99.3478 140.925C99.4151 140.867 99.4263 140.764 99.3702 140.696Z" fill="white"/>
<path d="M94.8003 140.836L94.656 141.013C94.5999 141.082 94.4973 141.092 94.4284 141.036L91.1565 138.36C91.0875 138.304 91.0779 138.201 91.134 138.131L91.2783 137.954C91.3344 137.885 91.437 137.876 91.5059 137.932L94.7779 140.607C94.8468 140.664 94.8564 140.767 94.8003 140.836Z" fill="white"/>
<path d="M94.8005 140.696L94.6562 140.519C94.6001 140.45 94.4975 140.44 94.4286 140.496L91.1566 143.172C91.0877 143.228 91.0781 143.331 91.1342 143.4L91.2785 143.577C91.3346 143.647 91.4372 143.656 91.5061 143.6L94.7781 140.925C94.847 140.867 94.8566 140.764 94.8005 140.696Z" fill="white"/>
<path d="M89.8156 140.836L89.6714 141.013C89.6153 141.082 89.5127 141.092 89.4437 141.036L86.1718 138.36C86.1028 138.304 86.0932 138.201 86.1493 138.131L86.2936 137.954C86.3497 137.885 86.4523 137.876 86.5213 137.932L89.7932 140.607C89.8621 140.664 89.8718 140.767 89.8156 140.836Z" fill="white"/>
<path d="M89.8151 140.696L89.6708 140.519C89.6147 140.45 89.5121 140.44 89.4432 140.496L86.1712 143.172C86.1023 143.228 86.0927 143.331 86.1488 143.4L86.2931 143.577C86.3492 143.647 86.4518 143.656 86.5207 143.6L89.7926 140.925C89.8616 140.867 89.8712 140.764 89.8151 140.696Z" fill="white"/>
<path opacity="0.26" d="M194.179 95.6345L134.803 116.306C131.036 116.306 127.982 113.239 127.982 109.456V80.0163C127.982 76.2333 131.036 73.1667 134.803 73.1667L194.179 52.4954C197.946 52.4954 201 55.562 201 59.345V88.7848C201 92.5678 197.946 95.6345 194.179 95.6345Z" fill="#A7ADFF"/>
<path opacity="0.13" d="M190.514 93.8975L131.138 114.569C127.371 114.569 124.317 111.502 124.317 107.719V78.281C124.317 74.4979 127.371 71.4313 131.138 71.4313L190.514 50.76C194.281 50.76 197.335 53.8267 197.335 57.6097V87.0479C197.335 90.8309 194.281 93.8975 190.514 93.8975Z" fill="#A7ADFF"/>
<path opacity="0.39" d="M154.785 85.0967L136.465 91.4747C135.303 91.4747 134.36 90.5282 134.36 89.3611V80.277C134.36 79.1099 135.303 78.1634 136.465 78.1634L154.785 71.7854C155.948 71.7854 156.89 72.732 156.89 73.8991V82.9831C156.89 84.1502 155.948 85.0967 154.785 85.0967Z" fill="white"/>
<path d="M196.317 42.645L177.997 49.0229C176.835 49.0229 175.892 48.0764 175.892 46.9093V37.8253C175.892 36.6582 176.835 35.7116 177.997 35.7116L196.317 29.3336C197.48 29.3336 198.422 30.2802 198.422 31.4473V40.5313C198.422 41.6984 197.48 42.645 196.317 42.645Z" fill="#A7ADFF"/>
<path d="M189.373 40.2352L172.027 46.2735C170.926 46.2735 170.035 45.3769 170.035 44.2726V35.6731C170.035 34.5671 170.927 33.6721 172.027 33.6721L189.373 27.6338C190.474 27.6338 191.365 28.5304 191.365 29.6348V38.2342C191.365 39.3402 190.473 40.2352 189.373 40.2352Z" fill="#E3E5FC"/>
<path d="M195.343 110.335L177.997 116.373C176.896 116.373 176.005 115.477 176.005 114.372V105.773C176.005 104.667 176.898 103.772 177.997 103.772L195.343 97.7336C196.444 97.7336 197.336 98.6303 197.336 99.7346V108.334C197.336 109.44 196.444 110.335 195.343 110.335Z" fill="#E3E5FC"/>
<path d="M166.559 113.265L148.239 119.643C147.076 119.643 146.134 118.696 146.134 117.529V108.447C146.134 107.28 147.076 106.333 148.239 106.333L166.559 99.9552C167.721 99.9552 168.664 100.902 168.664 102.069V111.153C168.664 112.318 167.721 113.265 166.559 113.265Z" fill="#A7ADFF"/>
<path opacity="0.51" d="M154.785 101.697L136.465 108.075C135.303 108.075 134.36 107.128 134.36 105.961V96.8773C134.36 95.7102 135.303 94.7636 136.465 94.7636L154.785 88.3856C155.948 88.3856 156.89 89.3322 156.89 90.4993V99.5833C156.89 100.75 155.948 101.697 154.785 101.697Z" fill="white"/>
<path opacity="0.51" d="M163.586 96.0611C163.138 96.0611 162.771 95.6925 162.771 95.2433V81.5312C162.771 81.082 163.138 80.7134 163.586 80.7134C164.033 80.7134 164.4 81.082 164.4 81.5312V95.2433C164.4 95.6925 164.034 96.0611 163.586 96.0611Z" fill="white"/>
<path opacity="0.51" d="M167.967 69.2421C167.816 68.8187 168.039 68.3487 168.461 68.1973L190.128 60.4333C190.55 60.282 191.018 60.5058 191.169 60.9291C191.319 61.3525 191.096 61.8226 190.675 61.9739L169.007 69.7379C168.586 69.8892 168.117 69.6655 167.967 69.2421Z" fill="white"/>
<path opacity="0.51" d="M167.966 72.2073C167.815 71.7839 168.038 71.3139 168.46 71.1625L190.127 63.3985C190.549 63.2472 191.017 63.471 191.168 63.8943C191.318 64.3177 191.096 64.7878 190.674 64.9391L169.006 72.7031C168.585 72.8528 168.117 72.6307 167.966 72.2073Z" fill="white"/>
<path opacity="0.51" d="M167.966 75.1709C167.815 74.7475 168.038 74.2775 168.46 74.1262L190.127 66.3622C190.549 66.2108 191.017 66.4346 191.168 66.858C191.318 67.2813 191.096 67.7514 190.674 67.9027L169.006 75.6667C168.585 75.8181 168.117 75.5943 167.966 75.1709Z" fill="white"/>
<path opacity="0.51" d="M167.966 78.1361C167.815 77.7128 168.038 77.2427 168.46 77.0914L190.127 69.3274C190.549 69.176 191.017 69.3998 191.168 69.8232C191.318 70.2466 191.096 70.7166 190.674 70.8679L169.006 78.6319C168.585 78.7817 168.117 78.5595 167.966 78.1361Z" fill="white"/>
<path opacity="0.51" d="M167.966 81.0998C167.815 80.6764 168.038 80.2063 168.46 80.055L190.127 72.291C190.549 72.1397 191.017 72.3634 191.168 72.7868C191.318 73.2102 191.096 73.6802 190.674 73.8316L169.006 81.5956C168.585 81.7469 168.117 81.5231 167.966 81.0998Z" fill="white"/>
<path opacity="0.51" d="M167.966 84.0634C167.815 83.64 168.038 83.1699 168.46 83.0186L190.127 75.2546C190.549 75.1033 191.017 75.3271 191.168 75.7504C191.318 76.1738 191.096 76.6439 190.674 76.7952L169.006 84.5592C168.585 84.7105 168.117 84.4867 167.966 84.0634Z" fill="white"/>
<path opacity="0.51" d="M167.966 87.0286C167.815 86.6052 168.038 86.1352 168.46 85.9838L190.127 78.2198C190.549 78.0685 191.017 78.2923 191.168 78.7156C191.318 79.139 191.096 79.6091 190.674 79.7604L169.006 87.5244C168.585 87.6741 168.117 87.452 167.966 87.0286Z" fill="white"/>
<path opacity="0.51" d="M167.966 89.9923C167.815 89.569 168.038 89.0989 168.46 88.9476L190.127 81.1836C190.549 81.0322 191.017 81.256 191.168 81.6794C191.318 82.1028 191.096 82.5728 190.674 82.7241L169.006 90.4881C168.585 90.6395 168.117 90.4157 167.966 89.9923Z" fill="white"/>
<path opacity="0.51" d="M167.966 92.9574C167.815 92.534 168.038 92.064 168.46 91.9127L190.127 84.1487C190.549 83.9973 191.017 84.2211 191.168 84.6445C191.318 85.0678 191.096 85.5379 190.674 85.6892L169.006 93.4532C168.585 93.6029 168.117 93.3808 167.966 92.9574Z" fill="white"/>
<path opacity="0.51" d="M167.966 95.921C167.815 95.4977 168.038 95.0276 168.46 94.8763L190.127 87.1123C190.549 86.961 191.017 87.1847 191.168 87.6081C191.318 88.0315 191.096 88.5015 190.674 88.6528L169.006 96.4169C168.585 96.5682 168.117 96.3444 167.966 95.921Z" fill="white"/>
<path d="M158.132 45.6072C158.334 45.4816 158.546 45.3689 158.76 45.2691C161.622 43.9507 165.017 45.216 166.332 48.0895C167.645 50.963 166.385 54.3725 163.523 55.6909L162.953 54.4417C165.128 53.4388 166.085 50.8471 165.088 48.6626C164.089 46.4781 161.508 45.517 159.333 46.5183C159.169 46.594 159.007 46.6809 158.853 46.7759L158.132 45.6072Z" fill="#E3E5FC"/>
<path d="M161.55 55.8438L164.077 56.082L163.019 53.7639L161.55 55.8438Z" fill="#E3E5FC"/>
<path d="M161.066 56.7743C160.864 56.8998 160.652 57.0125 160.437 57.1123C157.576 58.4307 154.179 57.1654 152.866 54.292C151.553 51.4185 152.813 48.009 155.674 46.6906L156.245 47.9397C154.07 48.9426 153.113 51.5344 154.11 53.7189C155.108 55.9034 157.689 56.8644 159.865 55.8631C160.028 55.7875 160.19 55.7005 160.344 55.6056L161.066 56.7743Z" fill="#E3E5FC"/>
<path d="M157.65 46.5376L155.122 46.2993L156.18 48.6158L157.65 46.5376Z" fill="#E3E5FC"/>
<path opacity="0.36" d="M163.585 77.2845C165.895 77.2845 167.767 75.4041 167.767 73.0846C167.767 70.765 165.895 68.8846 163.585 68.8846C161.275 68.8846 159.402 70.765 159.402 73.0846C159.402 75.4041 161.275 77.2845 163.585 77.2845Z" fill="url(#paint3_linear_75_2619)"/>
<path d="M163.585 75.1854C164.74 75.1854 165.677 74.2449 165.677 73.0847C165.677 71.9244 164.74 70.9839 163.585 70.9839C162.43 70.9839 161.493 71.9244 161.493 73.0847C161.493 74.2449 162.43 75.1854 163.585 75.1854Z" fill="url(#paint4_linear_75_2619)"/>
<path opacity="0.36" d="M163.585 76.0547C165.219 76.0547 166.543 74.725 166.543 73.0847C166.543 71.4444 165.219 70.1146 163.585 70.1146C161.952 70.1146 160.628 71.4444 160.628 73.0847C160.628 74.725 161.952 76.0547 163.585 76.0547Z" fill="url(#paint5_linear_75_2619)"/>
<defs>
<linearGradient id="paint0_linear_75_2619" x1="85.501" y1="104.08" x2="124.365" y2="104.08" gradientUnits="userSpaceOnUse">
<stop stop-color="#34BCF6"/>
<stop offset="1" stop-color="#63DDF8"/>
</linearGradient>
<linearGradient id="paint1_linear_75_2619" x1="97.9373" y1="84.479" x2="113.882" y2="84.479" gradientUnits="userSpaceOnUse">
<stop stop-color="#32B3EB"/>
<stop offset="1" stop-color="#5ED1EB"/>
</linearGradient>
<linearGradient id="paint2_linear_75_2619" x1="59" y1="140.863" x2="104.568" y2="140.863" gradientUnits="userSpaceOnUse">
<stop stop-color="#34BCF6"/>
<stop offset="1" stop-color="#63DDF8"/>
</linearGradient>
<linearGradient id="paint3_linear_75_2619" x1="159.402" y1="73.3124" x2="167.767" y2="73.3124" gradientUnits="userSpaceOnUse">
<stop stop-color="#34BCF6"/>
<stop offset="1" stop-color="#63DDF8"/>
</linearGradient>
<linearGradient id="paint4_linear_75_2619" x1="161.493" y1="73.1986" x2="165.677" y2="73.1986" gradientUnits="userSpaceOnUse">
<stop stop-color="#34BCF6"/>
<stop offset="1" stop-color="#63DDF8"/>
</linearGradient>
<linearGradient id="paint5_linear_75_2619" x1="160.628" y1="73.2458" x2="166.543" y2="73.2458" gradientUnits="userSpaceOnUse">
<stop stop-color="#34BCF6"/>
<stop offset="1" stop-color="#63DDF8"/>
</linearGradient>
</defs>
</svg>
