<svg width="260" height="160" viewBox="0 0 260 160" fill="none" xmlns="http://www.w3.org/2000/svg">
<rect width="260" height="160" fill="#F5F5F7"/>
<path d="M115.915 101.101C113.986 102.548 112.001 104.059 110.844 106.178C109.262 109.071 111.629 111.453 112.593 114.036C113.171 115.578 113.461 116.669 113.14 118.31C112.869 119.695 111.108 121.159 112.157 122.636C113.63 124.694 116.28 123.491 117.709 126.37C118.878 128.726 118.42 131.492 119.924 133.734C121.483 136.059 124.135 137.88 125.111 140.57C126.138 143.397 123.864 147.559 127.004 149.541C128.677 150.599 131.02 149.702 132.22 148.123C134.743 144.801 134.705 138.604 135.334 134.653C135.627 132.818 136.902 130.393 138.587 131.16C139.646 131.643 141.086 139.308 143.297 135.342C143.731 134.563 143.672 133.613 143.602 132.725C143.5 131.473 143.081 130.061 143.271 128.804C143.965 124.239 145.054 121.784 143.642 116.98C143.491 116.463 143.378 115.81 143.795 115.471C144.014 115.294 144.316 115.268 144.596 115.251C146.355 115.14 148.389 115.256 149.332 113.402C150.348 111.403 147.967 109.888 147.293 108.214C147.427 108.55 152.14 109.907 152.904 110.329C151.461 106.867 147.986 104.194 144.448 103.166" fill="#F44E4E"/>
<path d="M118.257 117.669C118.764 119.307 119.523 120.789 120.565 121.987C121.383 122.927 122.38 123.739 122.913 124.885C123.37 125.868 123.436 127.005 123.856 128.006C125.478 131.878 128.507 127.746 129.573 125.828C130.893 123.458 132.199 122.759 134.683 122.795C134.961 122.799 135.273 122.788 135.463 122.575C135.643 122.373 135.645 122.063 135.605 121.788C135.386 120.264 133.752 118.14 135.35 116.84C135.982 116.326 136.805 116.172 137.564 115.905C141.371 114.557 141.279 107.532 141.135 104.16C141.081 102.891 140.581 101.681 139.9 100.632C136.1 94.7722 126.296 94.7509 121.685 99.7138C117.941 103.739 116.426 111.737 118.257 117.669Z" fill="#D7384E"/>
<path d="M165.718 105.977C163.691 107.599 148.955 96.4511 134.58 83.6012L150.879 70.5596C160.077 87.5507 167.564 104.499 165.718 105.977Z" fill="#5A54FF"/>
<path d="M94.2816 105.977C96.309 107.599 111.045 96.4511 125.42 83.6012L109.121 70.5596C99.9227 87.5507 92.4359 104.499 94.2816 105.977Z" fill="#5A54FF"/>
<path d="M107.35 72.9604C107.35 92.4282 117.192 103.107 129.332 103.107C141.473 103.107 151.314 92.4282 151.314 72.9604C151.314 65.1846 148.773 53.4168 145.339 42.0847H113.156C109.795 53.4168 107.35 65.1846 107.35 72.9604Z" fill="#A7ADFF"/>
<path d="M129.332 9C125.33 9 118.208 25.0487 113.154 42.0848H145.336C140.171 25.0487 132.977 9 129.332 9Z" fill="#5A54FF"/>
<path d="M145.632 100.782H113.035C110.472 100.782 108.376 98.6768 108.376 96.103C108.376 93.5293 110.472 91.4243 113.035 91.4243H145.632C148.194 91.4243 150.29 93.5293 150.29 96.103C150.29 98.6768 148.194 100.782 145.632 100.782Z" fill="#978CFF"/>
<path d="M144.153 103.334H114.512C113.814 103.334 113.241 102.759 113.241 102.058C113.241 101.357 113.814 100.782 114.512 100.782H144.153C144.851 100.782 145.424 101.357 145.424 102.058C145.424 102.759 144.853 103.334 144.153 103.334Z" fill="#5A54FF"/>
<path d="M129.334 55.2709C122.959 55.2709 117.794 60.461 117.794 66.8611C117.794 67.2163 117.816 67.5643 117.846 67.91C124.617 65.1468 131.337 62.2913 137.924 59.1398C135.812 56.7697 132.749 55.2709 129.334 55.2709Z" fill="white"/>
<path d="M117.846 67.91C118.374 73.8199 123.312 78.4513 129.333 78.4513C135.707 78.4513 140.872 73.2611 140.872 66.8611C140.872 63.8919 139.75 61.1903 137.923 59.1398C131.337 62.2913 124.616 65.1468 117.846 67.91Z" fill="#E3E5FC"/>
</svg>
