<svg width="260" height="160" viewBox="0 0 260 160" fill="none" xmlns="http://www.w3.org/2000/svg">
<path d="M0 0H260V160H0V0Z" fill="#F5F5F7"/>
<path d="M124.839 142C158.374 142 185.56 140.94 185.56 139.632C185.56 138.325 158.374 137.264 124.839 137.264C91.3033 137.264 64.1173 138.325 64.1173 139.632C64.1173 140.94 91.3033 142 124.839 142Z" fill="#E3E5FC"/>
<path d="M180.481 113.904H64.682C61.5567 113.904 59 111.346 59 108.218V23.6867C59 20.5587 61.5567 18 64.682 18H180.481C183.606 18 186.163 20.5587 186.163 23.6867V108.218C186.163 111.346 183.606 113.904 180.481 113.904Z" fill="#A7ADFF"/>
<path d="M176.929 105.906H67.6848C64.5594 105.906 62.0028 103.347 62.0028 100.219V27.8581C62.0028 24.7301 64.5594 22.1714 67.6848 22.1714H176.929C180.054 22.1714 182.611 24.7301 182.611 27.8581V100.219C182.612 103.346 180.055 105.906 176.929 105.906Z" fill="#E3E5FC"/>
<path d="M129.299 109.531H120.38C120.163 109.531 119.986 109.352 119.986 109.136C119.986 108.918 120.164 108.741 120.38 108.741H129.299C129.516 108.741 129.693 108.92 129.693 109.136C129.693 109.352 129.515 109.531 129.299 109.531Z" fill="#E3E5FC"/>
<path d="M65.7841 21.2215C66.2741 21.2215 66.6713 20.824 66.6713 20.3336C66.6713 19.8432 66.2741 19.4457 65.7841 19.4457C65.2941 19.4457 64.8969 19.8432 64.8969 20.3336C64.8969 20.824 65.2941 21.2215 65.7841 21.2215Z" fill="#E3E5FC"/>
<path d="M69.6049 21.2215C70.0948 21.2215 70.4921 20.824 70.4921 20.3336C70.4921 19.8432 70.0948 19.4457 69.6049 19.4457C69.1149 19.4457 68.7177 19.8432 68.7177 20.3336C68.7177 20.824 69.1149 21.2215 69.6049 21.2215Z" fill="white"/>
<path d="M73.4591 21.2215C73.949 21.2215 74.3462 20.824 74.3462 20.3336C74.3462 19.8432 73.949 19.4457 73.4591 19.4457C72.9691 19.4457 72.5719 19.8432 72.5719 20.3336C72.5719 20.824 72.9691 21.2215 73.4591 21.2215Z" fill="#4B369D"/>
<path d="M165.812 70.6776H144.187C143.607 70.6776 143.132 70.202 143.132 69.6214C143.132 69.0409 143.607 68.5653 144.187 68.5653H165.812C166.392 68.5653 166.867 69.0409 166.867 69.6214C166.866 70.202 166.392 70.6776 165.812 70.6776Z" fill="white"/>
<path d="M165.812 75.5117H144.187C143.607 75.5117 143.132 75.0362 143.132 74.4556C143.132 73.8751 143.607 73.3995 144.187 73.3995H165.812C166.392 73.3995 166.867 73.8751 166.867 74.4556C166.866 75.0374 166.392 75.5117 165.812 75.5117Z" fill="white"/>
<path d="M165.812 80.3472H144.187C143.607 80.3472 143.132 79.8716 143.132 79.2911C143.132 78.7105 143.607 78.2349 144.187 78.2349H165.812C166.392 78.2349 166.867 78.7105 166.867 79.2911C166.866 79.8716 166.392 80.3472 165.812 80.3472Z" fill="white"/>
<path d="M165.812 85.7973H144.187C143.607 85.7973 143.132 85.3217 143.132 84.7412C143.132 84.1606 143.607 83.6851 144.187 83.6851H165.812C166.392 83.6851 166.867 84.1606 166.867 84.7412C166.866 85.323 166.392 85.7973 165.812 85.7973Z" fill="white"/>
<path d="M165.812 90.6328H144.187C143.607 90.6328 143.132 90.1572 143.132 89.5766C143.132 88.9961 143.607 88.5205 144.187 88.5205H165.812C166.392 88.5205 166.867 88.9961 166.867 89.5766C166.866 90.1572 166.392 90.6328 165.812 90.6328Z" fill="white"/>
<path d="M165.812 95.4682H144.187C143.607 95.4682 143.132 94.9926 143.132 94.4121C143.132 93.8315 143.607 93.356 144.187 93.356H165.812C166.392 93.356 166.867 93.8315 166.867 94.4121C166.866 94.9926 166.392 95.4682 165.812 95.4682Z" fill="white"/>
<path d="M78.2553 58.1811H122.984C126.109 58.1811 128.666 55.6223 128.666 52.4944V36.3172C128.666 33.1893 126.109 30.6306 122.984 30.6306H78.2553C75.13 30.6306 72.5733 33.1893 72.5733 36.3172V52.4944C72.572 55.6223 75.1287 58.1811 78.2553 58.1811Z" fill="white"/>
<path d="M73.7913 95.4822C73.2075 95.4822 72.7285 95.0041 72.7285 94.4184V69.9604C72.7285 69.3761 73.2062 68.8967 73.7913 68.8967C74.3752 68.8967 74.8542 69.3748 74.8542 69.9604V94.4184C74.8542 95.0041 74.3752 95.4822 73.7913 95.4822Z" fill="url(#paint0_linear_75_3874)"/>
<path d="M78.8809 95.4821C78.2971 95.4821 77.8181 95.004 77.8181 94.4184V83.5042C77.8181 82.9199 78.2958 82.4405 78.8809 82.4405C79.4648 82.4405 79.9438 82.9186 79.9438 83.5042V94.4184C79.9438 95.004 79.4648 95.4821 78.8809 95.4821Z" fill="url(#paint1_linear_75_3874)"/>
<path d="M83.9701 95.4821C83.3862 95.4821 82.9072 95.004 82.9072 94.4184V73.0947C82.9072 72.5103 83.3849 72.0309 83.9701 72.0309C84.554 72.0309 85.0329 72.5091 85.0329 73.0947V94.4184C85.0317 95.004 84.554 95.4821 83.9701 95.4821Z" fill="url(#paint2_linear_75_3874)"/>
<path d="M89.0582 95.4822C88.4744 95.4822 87.9954 95.0041 87.9954 94.4184V86.5828C87.9954 85.9985 88.4731 85.5191 89.0582 85.5191C89.6421 85.5191 90.1211 85.9972 90.1211 86.5828V94.4184C90.1211 95.0041 89.6434 95.4822 89.0582 95.4822Z" fill="url(#paint3_linear_75_3874)"/>
<path d="M94.1474 95.4821C93.5635 95.4821 93.0845 95.004 93.0845 94.4184V81.2098C93.0845 80.6254 93.5622 80.1461 94.1474 80.1461C94.7313 80.1461 95.2102 80.6242 95.2102 81.2098V94.4184C95.2102 95.004 94.7325 95.4821 94.1474 95.4821Z" fill="url(#paint4_linear_75_3874)"/>
<path d="M99.237 95.4822C98.6531 95.4822 98.1742 95.0041 98.1742 94.4184V90.5051C98.1742 89.9207 98.6519 89.4413 99.237 89.4413C99.8209 89.4413 100.3 89.9195 100.3 90.5051V94.4184C100.3 95.0041 99.8209 95.4822 99.237 95.4822Z" fill="url(#paint5_linear_75_3874)"/>
<path d="M79.8527 49.8345C82.8542 53.9692 88.636 54.8862 92.7661 51.8822L81.8975 36.9105C77.7674 39.9132 76.8512 45.6998 79.8527 49.8345Z" fill="#A7ADFF"/>
<path d="M82.8702 36.2022L87.8496 43.0613L94.8358 37.9818C92.0024 34.2366 86.6856 33.4284 82.8702 36.2022Z" fill="#A7ADFF"/>
<path d="M98.0815 37.3962C98.036 37.333 97.983 37.2773 97.9362 37.2153L88.5551 44.0353L95.5135 53.6214C100.7 49.8497 101.849 42.5858 98.0815 37.3962Z" fill="#FDC510"/>
<path d="M105.936 37.7592C105.936 37.1407 106.442 36.6335 107.061 36.6335H122.145C122.763 36.6335 123.269 37.1394 123.269 37.7592C123.269 38.3777 122.764 38.8849 122.145 38.8849H107.061C106.442 38.8849 105.936 38.3777 105.936 37.7592Z" fill="#FDC510"/>
<path d="M105.936 43.1499C105.936 42.5314 106.442 42.0242 107.061 42.0242H112.176C112.794 42.0242 113.301 42.5301 113.301 43.1499C113.301 43.7684 112.795 44.2756 112.176 44.2756H107.061C106.442 44.2756 105.936 43.7684 105.936 43.1499Z" fill="#A7ADFF"/>
<path fill-rule="evenodd" clip-rule="evenodd" d="M102.322 78.5726C102.322 84.1695 106.872 88.7229 112.464 88.7229C118.056 88.7229 122.606 84.1695 122.606 78.5726C122.606 72.9757 118.056 68.4224 112.464 68.4224C106.872 68.4224 102.322 72.9757 102.322 78.5726ZM103.27 78.5727C103.27 73.4994 107.395 69.371 112.465 69.371C117.535 69.371 121.659 73.4982 121.659 78.5727C121.659 83.6472 117.535 87.7756 112.465 87.7756C107.395 87.7756 103.27 83.6472 103.27 78.5727Z" fill="#978CFF"/>
<path fill-rule="evenodd" clip-rule="evenodd" d="M105.637 78.5727C105.637 82.3406 108.699 85.4053 112.464 85.4053C116.229 85.4053 119.291 82.3406 119.291 78.5727C119.291 74.8047 116.229 71.7401 112.464 71.7401C108.699 71.7401 105.637 74.8047 105.637 78.5727ZM106.584 78.5727C106.584 75.3284 109.223 72.6887 112.464 72.6887C115.707 72.6887 118.343 75.3284 118.343 78.5727C118.343 81.8183 115.706 84.458 112.464 84.458C109.221 84.458 106.584 81.817 106.584 78.5727Z" fill="#978CFF"/>
<path fill-rule="evenodd" clip-rule="evenodd" d="M108.548 78.5727C108.548 80.733 110.305 82.4911 112.464 82.4911C114.622 82.4911 116.379 80.733 116.379 78.5727C116.379 76.4123 114.623 74.6542 112.464 74.6542C110.304 74.6542 108.548 76.4123 108.548 78.5727ZM109.497 78.5727C109.497 76.9348 110.828 75.6029 112.464 75.6029C114.101 75.6029 115.432 76.9348 115.432 78.5727C115.432 80.2107 114.101 81.5425 112.464 81.5425C110.828 81.5425 109.497 80.2107 109.497 78.5727Z" fill="#978CFF"/>
<path d="M111.952 79.4239L112.061 77.0119C112.073 76.75 112.292 76.5489 112.555 76.559C112.817 76.5704 113.019 76.793 113.007 77.0536L112.977 77.7214L128.681 68.4882C128.907 68.3554 129.197 68.4313 129.329 68.6564C129.462 68.8815 129.386 69.1724 129.161 69.3053L111.952 79.4239Z" fill="#FDC510"/>
<path d="M114.082 79.5162H112.464C112.202 79.5162 111.99 79.3037 111.99 79.0419C111.99 78.7801 112.202 78.5676 112.464 78.5676H114.082C114.343 78.5676 114.555 78.7801 114.555 79.0419C114.555 79.3037 114.343 79.5162 114.082 79.5162Z" fill="#FDC510"/>
<path d="M141.224 58.3417C141.147 58.3417 141.069 58.3227 140.997 58.2835C140.767 58.157 140.683 57.8699 140.81 57.6397L144.697 50.5554L147.802 53.529L149.872 50.243L151.688 51.3434L156.032 40.5569L159.059 45.9312L161.907 41.7092L164.31 44.6588L169.169 35.7025C169.323 35.4179 169.527 35.1068 169.742 34.7767C169.919 34.5047 170.107 34.2163 170.271 33.9356C170.088 34.0152 169.901 34.1025 169.723 34.186C169.393 34.3403 169.082 34.4858 168.801 34.5806C168.555 34.6641 168.286 34.53 168.201 34.2821C168.118 34.0342 168.252 33.7648 168.499 33.6813C168.729 33.6042 169.016 33.4701 169.321 33.3272C169.925 33.0451 170.548 32.7529 171.1 32.7099L171.774 32.6581L171.593 33.3095C171.418 33.9406 170.969 34.6287 170.534 35.2952C170.329 35.6089 170.136 35.9049 170.001 36.1553L164.468 46.3536L161.978 43.2966L158.986 47.7323L156.172 42.7388L152.148 52.7296L150.176 51.5344L147.984 55.0139L144.933 52.0922L141.64 58.095C141.554 58.2532 141.392 58.3417 141.224 58.3417Z" fill="#5A54FF"/>
<path d="M171.414 36.0251C171.153 36.0251 170.94 35.8126 170.94 35.5508V33.1805C170.94 32.9187 171.153 32.7062 171.414 32.7062C171.676 32.7062 171.889 32.9187 171.889 33.1805V35.5508C171.889 35.8126 171.676 36.0251 171.414 36.0251Z" fill="#5A54FF"/>
<path d="M140.751 61.1053C140.491 61.1053 140.277 60.8916 140.277 60.631V30.3789C140.277 30.1183 140.491 29.9045 140.751 29.9045C141.012 29.9045 141.226 30.1183 141.226 30.3789V60.6323C141.226 60.8928 141.012 61.1053 140.751 61.1053Z" fill="#A7ADFF"/>
<path d="M137.871 58.3417C137.871 58.0811 138.085 57.8674 138.345 57.8674H168.574C168.834 57.8674 169.048 58.0811 169.048 58.3417C169.048 58.6022 168.834 58.816 168.574 58.816H138.344C138.083 58.8147 137.871 58.6022 137.871 58.3417Z" fill="#A7ADFF"/>
<path d="M158.293 37.3531H149.494C148.625 37.3531 147.915 36.6423 147.915 35.7734C147.915 34.9044 148.625 34.1936 149.494 34.1936H158.293C159.162 34.1936 159.872 34.9044 159.872 35.7734C159.872 36.6423 159.162 37.3531 158.293 37.3531Z" fill="url(#paint6_linear_75_3874)"/>
<rect x="164.27" y="44.2756" width="0.355416" height="0.474311" fill="#4B369D"/>
<path fill-rule="evenodd" clip-rule="evenodd" d="M164.271 38.0312H164.626V37.1395H164.271V38.0312ZM164.626 39.8145H164.27V38.9228H164.626V39.8145ZM164.27 41.5992H164.626V40.7075H164.27V41.5992ZM164.27 43.3839H164.626V42.4922H164.27V43.3839Z" fill="#4B369D"/>
<path d="M164.626 36.2465H164.271V35.9505H163.975V35.5951H164.626V36.2465Z" fill="#4B369D"/>
<rect x="161.555" y="35.5951" width="1.2117" height="0.355417" fill="#4B369D"/>
<rect x="159.871" y="35.595" width="0.47431" height="0.355417" fill="#4B369D"/>
<path d="M164.667 46.8659H164.23C163.638 46.8659 163.154 46.3815 163.154 45.7896V45.3519C163.154 44.76 163.638 44.2756 164.23 44.2756H164.667C165.259 44.2756 165.743 44.76 165.743 45.3519V45.7896C165.743 46.3815 165.259 46.8659 164.667 46.8659Z" fill="url(#paint7_linear_75_3874)"/>
<path d="M197.887 68.5552C197.887 68.5552 199.289 75.2246 199.17 77.9503C199.051 80.676 196.684 84.7425 196.684 84.7425L195.155 68.5564H197.887V68.5552Z" fill="#EAC2AB"/>
<path d="M189.522 56.3256L189.83 62.0705L194.323 63.8046C194.323 63.8046 191.621 59.8482 192.08 56.3256C192.536 52.8031 189.522 56.3256 189.522 56.3256Z" fill="#D4A79A"/>
<path d="M185.507 44.5716C185.507 44.5716 184.529 45.8693 185.483 49.8472C186.437 53.8263 187.986 57.2236 189.184 56.9833C192.497 56.3206 193.66 53.9781 194.808 51.967C196.216 49.5006 193.421 43.4851 193.421 43.4851L190.779 42.0583L185.507 44.5716Z" fill="#EAC2AB"/>
<path d="M181.98 43.5002C181.69 42.5668 182.198 41.3728 182.877 40.796C183.139 40.5734 183.469 40.4317 183.798 40.4646C184.046 40.4887 184.289 40.6088 184.535 40.5683C185.273 40.4456 185.362 39.3566 186.047 39.1353C186.557 38.9709 187.048 39.4338 187.568 39.5565C187.961 39.6488 188.368 39.5426 188.764 39.4603C189.877 39.2264 190.91 38.6913 192.051 38.5535C193.014 38.4371 194.019 38.5459 194.89 39.0139C195.799 39.5021 196.452 40.4001 196.799 41.4373C197.006 42.057 197.073 42.7476 196.907 43.3826C197.043 42.8602 197.982 43.4218 198.135 43.6267C198.731 44.4337 198.834 46.1829 198.517 47.1214C198.265 47.8651 197.852 48.5228 197.622 49.2767C197.349 50.176 197.235 51.1739 196.737 51.9708C196.167 52.8852 193.097 55.8867 192.123 55.6337C192.424 54.8065 190.958 54.0552 191.012 53.166C191.067 52.2769 191.621 47.6488 187.251 46.7824C185.513 46.4384 187.743 45.8743 186.003 45.9439C185.176 45.9767 184.348 45.8161 183.573 45.5012C182.974 45.2583 182.392 44.3641 182.062 43.7102C182.029 43.6419 182.003 43.5723 181.98 43.5002Z" fill="#4B369D"/>
<path d="M190.739 49.4981C190.739 49.4981 192.555 47.9411 192.422 50.047C192.289 52.153 190.589 52.7639 190.589 52.7639L190.739 49.4981Z" fill="#EAC2AB"/>
<path d="M195.595 129.046L194.478 136.63L196.973 137.264L197.669 129.282C197.668 129.282 196.356 128.74 195.595 129.046Z" fill="#D4A79A"/>
<path d="M184.698 140.273C184.698 140.273 186.566 140.769 190.082 140.783C193.598 140.797 197.51 140.653 198.182 140.084C198.855 139.515 199.002 135.066 197.836 135.148C196.669 135.231 196.334 136.951 194.174 135.589C192.323 134.421 191.087 136.953 188.066 137.818C185.046 138.684 183.823 139.03 184.698 140.273Z" fill="url(#paint8_linear_75_3874)"/>
<path d="M189.379 131.384C189.475 131.078 189.767 130.832 190.017 130.581C192.309 128.283 191.487 125.083 190.896 122.276C189.499 115.618 190.016 108.773 189.915 102.023C189.816 95.434 188.752 88.8898 186.931 82.5897C186.27 80.3004 185.328 76.7551 188.668 77.2041C190.251 77.4166 191.785 77.2458 193.319 76.8385C194.127 76.6248 193.271 76.392 194.127 76.6248C197.04 77.4166 198.705 85.8163 198.264 87.902C197.387 92.0544 197.09 93.3838 197.204 97.7082C197.366 103.841 196.863 110.028 197.952 116.047C198.487 118.997 199.072 121.936 199.643 124.877C199.977 126.592 201.567 130.293 200.788 131.921C199.719 134.157 194.153 132.716 192.333 132.795C190.967 132.855 189.051 132.428 189.379 131.384Z" fill="#4B369D"/>
<path d="M189.943 129.307L188.299 136.794L190.743 137.601L191.996 129.687C191.996 129.688 190.724 129.056 189.943 129.307Z" fill="#EAC2AB"/>
<path d="M178.289 139.745C178.289 139.745 180.118 140.37 183.624 140.63C187.13 140.891 191.042 141.021 191.753 140.5C192.464 139.979 192.922 135.553 191.753 135.553C190.584 135.553 190.13 137.246 188.069 135.735C186.303 134.441 184.893 136.881 181.819 137.531C178.747 138.182 177.502 138.442 178.289 139.745Z" fill="url(#paint9_linear_75_3874)"/>
<path d="M183.579 131.405C183.696 131.13 184.005 130.925 184.273 130.711C186.721 128.759 186.123 125.78 185.731 123.177C184.802 117.002 185.797 110.778 186.168 104.602C186.53 98.5734 185.927 92.5238 184.551 86.6474C184.05 84.5123 183.36 81.2111 186.66 81.836C188.223 82.1319 189.766 82.0737 191.325 81.8005C192.145 81.6564 191.308 81.3895 192.145 81.6564C194.995 82.567 196.103 85.6089 195.518 87.4859C194.353 91.226 193.929 97.1644 193.741 101.125C193.473 106.74 192.539 112.363 193.205 117.935C193.531 120.666 193.91 123.389 194.274 126.115C194.487 127.705 195.815 131.188 194.924 132.628C193.701 134.603 188.25 132.929 186.429 132.884C185.061 132.85 183.181 132.337 183.579 131.405Z" fill="#5A54FF"/>
<path d="M180.399 67.3258C179.219 68.2187 177.963 69.0093 176.648 69.6885C175.626 70.2159 172.853 71.9955 171.779 70.9065C171.466 70.5878 171.329 70.1388 171.217 69.7062C170.551 67.1525 169.584 64.6911 168.638 62.231C167.793 60.034 166.778 57.7169 166.856 55.3137C166.937 52.8599 166.791 49.5499 166.557 48.9491C166.323 48.3483 164.406 44.8118 164.371 45.9122C164.335 47.0126 166.183 50.0381 165.34 49.9255C164.497 49.813 162.696 50.5162 162.908 51.7949C163.121 53.0724 164.469 55.8285 164.469 55.8285C165.059 58.3113 165.681 60.7891 166.327 63.2581C166.81 65.1047 167.305 66.9514 167.857 68.7791C168.395 70.5561 168.892 72.485 170.454 73.6638C170.658 73.8181 170.874 73.9547 171.104 74.0648C172.954 74.9502 175.129 74.023 176.929 73.039C180.79 70.928 184.45 68.4919 188.138 66.0976C187.416 65.3881 186.694 64.6798 185.974 63.9702C185.801 63.8007 185.611 63.6211 185.372 63.5857C185.093 63.5427 184.826 63.7046 184.595 63.8677C183.444 64.676 182.437 65.6663 181.356 66.5681C181.043 66.8274 180.723 67.0804 180.399 67.3258Z" fill="#EAC2AB"/>
<path d="M192.932 69.2925C192.932 69.2925 189.137 62.9191 192.034 61.7276C194.93 60.5361 197.888 68.5564 197.888 68.5564L193.119 70.4385L192.932 69.2925Z" fill="url(#paint10_linear_75_3874)"/>
<path d="M184.16 83.1133C184.16 82.8503 183.721 76.005 184.685 71.6173C185.65 67.2296 184.685 63.4554 188.018 60.8233C191.351 58.1912 194.068 61.7011 194.945 63.5439C195.822 65.3868 196.558 71.2379 196.681 74.338C196.808 77.5064 198.472 84.2011 198.539 84.3428C199.861 87.0938 198.992 86.8914 198.877 87.1532C198.163 88.7823 193.518 89.0985 192.402 88.5217C189.955 87.2569 189.436 86.5688 186.798 86.9749C185.659 87.1507 184.399 86.799 184.06 86.4487C183.721 86.0983 184.16 83.1133 184.16 83.1133Z" fill="url(#paint11_linear_75_3874)"/>
<path d="M182.301 64.342C182.301 64.342 188.457 57.7737 190.816 60.7549C193.177 63.7361 184.821 69.8794 184.821 69.8794L181.028 64.9441L182.301 64.342Z" fill="url(#paint12_linear_75_3874)"/>
<defs>
<linearGradient id="paint0_linear_75_3874" x1="72.7285" y1="82.9105" x2="74.8542" y2="82.9105" gradientUnits="userSpaceOnUse">
<stop stop-color="#34BCF6"/>
<stop offset="1" stop-color="#63DDF8"/>
</linearGradient>
<linearGradient id="paint1_linear_75_3874" x1="77.8181" y1="89.315" x2="79.9438" y2="89.315" gradientUnits="userSpaceOnUse">
<stop stop-color="#34BCF6"/>
<stop offset="1" stop-color="#63DDF8"/>
</linearGradient>
<linearGradient id="paint2_linear_75_3874" x1="82.9072" y1="84.3926" x2="85.0329" y2="84.3926" gradientUnits="userSpaceOnUse">
<stop stop-color="#34BCF6"/>
<stop offset="1" stop-color="#63DDF8"/>
</linearGradient>
<linearGradient id="paint3_linear_75_3874" x1="87.9954" y1="90.7709" x2="90.1211" y2="90.7709" gradientUnits="userSpaceOnUse">
<stop stop-color="#34BCF6"/>
<stop offset="1" stop-color="#63DDF8"/>
</linearGradient>
<linearGradient id="paint4_linear_75_3874" x1="93.0845" y1="88.23" x2="95.2102" y2="88.23" gradientUnits="userSpaceOnUse">
<stop stop-color="#34BCF6"/>
<stop offset="1" stop-color="#63DDF8"/>
</linearGradient>
<linearGradient id="paint5_linear_75_3874" x1="98.1742" y1="92.6256" x2="100.3" y2="92.6256" gradientUnits="userSpaceOnUse">
<stop stop-color="#34BCF6"/>
<stop offset="1" stop-color="#63DDF8"/>
</linearGradient>
<linearGradient id="paint6_linear_75_3874" x1="147.915" y1="35.8591" x2="159.872" y2="35.8591" gradientUnits="userSpaceOnUse">
<stop stop-color="#34BCF6"/>
<stop offset="1" stop-color="#63DDF8"/>
</linearGradient>
<linearGradient id="paint7_linear_75_3874" x1="163.154" y1="45.641" x2="165.743" y2="45.641" gradientUnits="userSpaceOnUse">
<stop stop-color="#34BCF6"/>
<stop offset="1" stop-color="#63DDF8"/>
</linearGradient>
<linearGradient id="paint8_linear_75_3874" x1="184.422" y1="138.119" x2="198.701" y2="138.119" gradientUnits="userSpaceOnUse">
<stop stop-color="#32B3EB"/>
<stop offset="1" stop-color="#5ED1EB"/>
</linearGradient>
<linearGradient id="paint9_linear_75_3874" x1="178.059" y1="138.26" x2="192.468" y2="138.26" gradientUnits="userSpaceOnUse">
<stop stop-color="#34BCF6"/>
<stop offset="1" stop-color="#63DDF8"/>
</linearGradient>
<linearGradient id="paint10_linear_75_3874" x1="190.944" y1="66.2622" x2="197.888" y2="66.2622" gradientUnits="userSpaceOnUse">
<stop stop-color="#34BCF6"/>
<stop offset="1" stop-color="#63DDF8"/>
</linearGradient>
<linearGradient id="paint11_linear_75_3874" x1="183.931" y1="75.1175" x2="199.263" y2="75.1175" gradientUnits="userSpaceOnUse">
<stop stop-color="#32B3EB"/>
<stop offset="1" stop-color="#5ED1EB"/>
</linearGradient>
<linearGradient id="paint12_linear_75_3874" x1="181.028" y1="65.1977" x2="191.236" y2="65.1977" gradientUnits="userSpaceOnUse">
<stop stop-color="#34BCF6"/>
<stop offset="1" stop-color="#63DDF8"/>
</linearGradient>
</defs>
</svg>
