<svg width="260" height="160" viewBox="0 0 260 160" fill="none" xmlns="http://www.w3.org/2000/svg">
<rect width="260" height="160" fill="#F5F5F7"/>
<path d="M196.113 124.792C195.855 124.921 195.453 124.994 194.864 124.994C179.036 124.992 163.213 124.988 147.382 125.031C139.454 125.052 131.524 124.995 123.596 125.013C119.591 125.022 115.587 125.05 111.584 125.118C109.582 125.152 107.58 125.195 105.578 125.25C104.106 125.291 102.32 125.565 100.918 124.952C100.44 124.743 99.9885 124.463 99.7978 123.948C99.7666 123.826 99.7591 123.703 99.774 123.578C99.9289 122.51 101.563 120.716 102.205 119.831C103.524 118.016 104.872 116.04 107.236 115.411C108.611 115.045 110.062 115.051 111.489 115.06C136.529 115.06 161.571 115.199 186.61 115.276C188.18 115.281 190.118 115.512 191.21 116.713C192.598 118.239 193.82 119.891 194.943 121.601C195.621 122.623 197.245 124.23 196.113 124.792Z" fill="#978CFF"/>
<path d="M185.341 116.349H110.339C106.655 116.349 103.641 113.331 103.641 109.641V56.3404C103.641 52.6507 106.655 49.6323 110.339 49.6323H185.342C189.026 49.6323 192.04 52.6507 192.04 56.3404V109.641C192.04 113.331 189.025 116.349 185.341 116.349Z" fill="#A7ADFF"/>
<path d="M112.673 52.5312C108.854 52.5312 105.728 55.6615 105.728 59.487V95.9473C128.333 82.361 150.441 68.0034 171.79 52.5313L112.673 52.5312Z" fill="#EFF0FC"/>
<path d="M182.625 52.5312H171.79C150.44 68.0019 128.333 82.361 105.728 95.9473V103.828C105.728 107.654 108.854 110.784 112.673 110.784H182.625C186.444 110.784 189.57 107.654 189.57 103.828V59.487C189.57 55.6615 186.444 52.5312 182.625 52.5312Z" fill="#E3E5FC"/>
<path d="M152.577 113.305H146.242C146.129 113.305 146.036 113.213 146.036 113.1V112.962C146.036 112.849 146.129 112.756 146.242 112.756H152.577C152.691 112.756 152.783 112.849 152.783 112.962V113.1C152.783 113.213 152.691 113.305 152.577 113.305Z" fill="#E3E5FC"/>
<path d="M112.07 51.8719C112.411 51.8719 112.687 51.5953 112.687 51.2542C112.687 50.913 112.411 50.6365 112.07 50.6365C111.729 50.6365 111.453 50.913 111.453 51.2542C111.453 51.5953 111.729 51.8719 112.07 51.8719Z" fill="#E3E5FC"/>
<path d="M114.726 51.8719C115.067 51.8719 115.343 51.5953 115.343 51.2542C115.343 50.913 115.067 50.6365 114.726 50.6365C114.385 50.6365 114.109 50.913 114.109 51.2542C114.109 51.5953 114.385 51.8719 114.726 51.8719Z" fill="white"/>
<path d="M117.406 51.8719C117.746 51.8719 118.023 51.5953 118.023 51.2542C118.023 50.913 117.746 50.6365 117.406 50.6365C117.065 50.6365 116.789 50.913 116.789 51.2542C116.789 51.5953 117.065 51.8719 117.406 51.8719Z" fill="#4B369D"/>
<path d="M110.64 119.621H108.161C107.834 119.621 107.568 119.354 107.568 119.027V118.635C107.568 118.308 107.834 118.041 108.161 118.041H110.64C110.966 118.041 111.232 118.308 111.232 118.635V119.027C111.232 119.354 110.966 119.621 110.64 119.621Z" fill="#E3E5FC"/>
<path d="M116.734 119.621H114.255C113.929 119.621 113.662 119.354 113.662 119.027V118.635C113.662 118.308 113.929 118.041 114.255 118.041H116.734C117.06 118.041 117.327 118.308 117.327 118.635V119.027C117.329 119.354 117.06 119.621 116.734 119.621Z" fill="#E3E5FC"/>
<path d="M122.83 119.621H120.351C120.025 119.621 119.758 119.354 119.758 119.027V118.635C119.758 118.308 120.025 118.041 120.351 118.041H122.83C123.156 118.041 123.423 118.308 123.423 118.635V119.027C123.423 119.354 123.156 119.621 122.83 119.621Z" fill="#E3E5FC"/>
<path d="M128.924 119.621H126.445C126.119 119.621 125.852 119.354 125.852 119.027V118.635C125.852 118.308 126.119 118.041 126.445 118.041H128.924C129.25 118.041 129.517 118.308 129.517 118.635V119.027C129.517 119.354 129.25 119.621 128.924 119.621Z" fill="#E3E5FC"/>
<path d="M135.019 119.621H132.54C132.214 119.621 131.947 119.354 131.947 119.027V118.635C131.947 118.308 132.214 118.041 132.54 118.041H135.019C135.345 118.041 135.612 118.308 135.612 118.635V119.027C135.613 119.354 135.345 119.621 135.019 119.621Z" fill="#E3E5FC"/>
<path d="M141.115 119.621H138.636C138.31 119.621 138.043 119.354 138.043 119.027V118.635C138.043 118.308 138.31 118.041 138.636 118.041H141.115C141.441 118.041 141.708 118.308 141.708 118.635V119.027C141.708 119.354 141.441 119.621 141.115 119.621Z" fill="#E3E5FC"/>
<path d="M147.209 119.621H144.73C144.404 119.621 144.137 119.354 144.137 119.027V118.635C144.137 118.308 144.404 118.041 144.73 118.041H147.209C147.535 118.041 147.802 118.308 147.802 118.635V119.027C147.802 119.354 147.535 119.621 147.209 119.621Z" fill="#E3E5FC"/>
<path d="M153.305 119.621H150.826C150.5 119.621 150.233 119.354 150.233 119.027V118.635C150.233 118.308 150.5 118.041 150.826 118.041H153.305C153.631 118.041 153.898 118.308 153.898 118.635V119.027C153.898 119.354 153.631 119.621 153.305 119.621Z" fill="#E3E5FC"/>
<path d="M159.399 119.621H156.92C156.594 119.621 156.327 119.354 156.327 119.027V118.635C156.327 118.308 156.594 118.041 156.92 118.041H159.399C159.725 118.041 159.992 118.308 159.992 118.635V119.027C159.992 119.354 159.725 119.621 159.399 119.621Z" fill="#E3E5FC"/>
<path d="M165.493 119.621H163.014C162.688 119.621 162.422 119.354 162.422 119.027V118.635C162.422 118.308 162.688 118.041 163.014 118.041H165.493C165.82 118.041 166.086 118.308 166.086 118.635V119.027C166.088 119.354 165.82 119.621 165.493 119.621Z" fill="#E3E5FC"/>
<path d="M171.589 119.621H169.11C168.784 119.621 168.518 119.354 168.518 119.027V118.635C168.518 118.308 168.784 118.041 169.11 118.041H171.589C171.916 118.041 172.182 118.308 172.182 118.635V119.027C172.182 119.354 171.916 119.621 171.589 119.621Z" fill="#E3E5FC"/>
<path d="M177.683 119.621H175.205C174.878 119.621 174.612 119.354 174.612 119.027V118.635C174.612 118.308 174.878 118.041 175.205 118.041H177.683C178.01 118.041 178.276 118.308 178.276 118.635V119.027C178.276 119.354 178.01 119.621 177.683 119.621Z" fill="#E3E5FC"/>
<path d="M183.778 119.621H181.299C180.973 119.621 180.706 119.354 180.706 119.027V118.635C180.706 118.308 180.973 118.041 181.299 118.041H183.778C184.104 118.041 184.371 118.308 184.371 118.635V119.027C184.372 119.354 184.106 119.621 183.778 119.621Z" fill="#E3E5FC"/>
<path d="M71.3834 81.1508H47.5348C43.3905 81.1508 40 77.755 40 73.6042C40 69.4534 43.3905 66.0576 47.5348 66.0576H71.3834C75.5277 66.0576 78.9183 69.4534 78.9183 73.6042C78.9183 77.7535 75.5277 81.1508 71.3834 81.1508Z" fill="#E3E5FC"/>
<path d="M56.0053 77.1999C55.8652 77.1999 55.7252 77.1477 55.6164 77.0417L52.2885 73.8011L55.606 70.4053C55.822 70.1844 56.1751 70.18 56.3956 70.3963C56.616 70.6127 56.619 70.9663 56.4045 71.1871L53.869 73.7817L56.3941 76.2405C56.6145 76.4554 56.619 76.809 56.4045 77.0313C56.2972 77.1432 56.1512 77.1999 56.0053 77.1999Z" fill="#A7ADFF"/>
<path d="M62.335 77.1999C62.195 77.1999 62.0535 77.1477 61.9447 77.0403C61.7243 76.8239 61.7213 76.4703 61.9358 76.2495L64.4713 73.6549L61.9462 71.1961C61.7258 70.9812 61.7213 70.6276 61.9358 70.4053C62.1503 70.183 62.5034 70.1785 62.7253 70.3934L66.0533 73.634L62.7358 77.0298C62.6255 77.1432 62.481 77.1999 62.335 77.1999Z" fill="#A7ADFF"/>
<path d="M57.4277 79.7572C57.3711 79.7572 57.3115 79.7482 57.2534 79.7288C56.9615 79.6333 56.8006 79.317 56.8974 79.0231L60.3833 68.3567C60.4786 68.0628 60.7915 67.9017 61.0879 68.0001C61.3799 68.0956 61.5408 68.4119 61.444 68.7059L57.9581 79.3722C57.8821 79.6065 57.6631 79.7572 57.4277 79.7572Z" fill="#A7ADFF"/>
<path fill-rule="evenodd" clip-rule="evenodd" d="M189.326 34.5464H199.862V23.9934H189.326V34.5464ZM199.304 33.9869H189.885V24.5529H199.304V33.9869Z" fill="#4B369D"/>
<rect x="189.407" y="34.0696" width="14.1212" height="0.559065" transform="rotate(-45 189.407 34.0696)" fill="#4B369D"/>
<rect x="189.407" y="24.4712" width="0.559065" height="14.1212" transform="rotate(-45 189.407 24.4712)" fill="#4B369D"/>
<path fill-rule="evenodd" clip-rule="evenodd" d="M199.304 34.5464H209.84V23.9934H199.304V34.5464ZM209.281 33.9869H199.862V24.5529H209.281V33.9869Z" fill="#4B369D"/>
<rect x="199.384" y="34.0696" width="14.1212" height="0.559065" transform="rotate(-45 199.384 34.0696)" fill="#4B369D"/>
<rect x="199.384" y="24.4712" width="0.559065" height="14.1212" transform="rotate(-45 199.384 24.4712)" fill="#4B369D"/>
<path fill-rule="evenodd" clip-rule="evenodd" d="M169.371 134.478H179.908V123.925H169.371V134.478ZM179.35 133.919H169.93V124.485H179.35V133.919Z" fill="#4B369D"/>
<rect x="169.45" y="134.001" width="14.1212" height="0.559065" transform="rotate(-45 169.45 134.001)" fill="#4B369D"/>
<rect x="169.451" y="124.404" width="0.559065" height="14.1212" transform="rotate(-45 169.451 124.404)" fill="#4B369D"/>
<path fill-rule="evenodd" clip-rule="evenodd" d="M169.371 124.485H179.908V113.932H169.371V124.485ZM179.35 123.925H169.93V114.491H179.35V123.925Z" fill="#4B369D"/>
<rect x="169.45" y="124.008" width="14.1212" height="0.559065" transform="rotate(-45 169.45 124.008)" fill="#4B369D"/>
<rect x="169.451" y="114.411" width="0.559065" height="14.1212" transform="rotate(-45 169.451 114.411)" fill="#4B369D"/>
<path fill-rule="evenodd" clip-rule="evenodd" d="M169.371 114.491H179.908V103.938H169.371V114.491ZM179.35 113.933H169.93V104.499H179.35V113.933Z" fill="#4B369D"/>
<rect x="169.451" y="114.016" width="14.1212" height="0.559065" transform="rotate(-45 169.451 114.016)" fill="#4B369D"/>
<rect x="169.451" y="104.417" width="0.559065" height="14.1212" transform="rotate(-45 169.451 104.417)" fill="#4B369D"/>
<path fill-rule="evenodd" clip-rule="evenodd" d="M169.371 104.498H179.908V93.9448H169.371V104.498ZM179.35 103.94H169.93V94.5058H179.35V103.94Z" fill="#4B369D"/>
<rect x="169.451" y="104.022" width="14.1212" height="0.559065" transform="rotate(-45 169.451 104.022)" fill="#4B369D"/>
<rect x="169.451" y="94.4238" width="0.559065" height="14.1212" transform="rotate(-45 169.451 94.4238)" fill="#4B369D"/>
<path fill-rule="evenodd" clip-rule="evenodd" d="M169.371 94.5059H179.908V83.9529H169.371V94.5059ZM179.35 93.9464H169.93V84.5124H179.35V93.9464Z" fill="#4B369D"/>
<rect x="169.451" y="94.0291" width="14.1212" height="0.559065" transform="rotate(-45 169.451 94.0291)" fill="#4B369D"/>
<rect x="169.451" y="84.4307" width="0.559065" height="14.1212" transform="rotate(-45 169.451 84.4307)" fill="#4B369D"/>
<path fill-rule="evenodd" clip-rule="evenodd" d="M169.371 84.5125H179.908V73.9595H169.371V84.5125ZM179.35 83.953H169.93V74.519H179.35V83.953Z" fill="#4B369D"/>
<rect x="169.451" y="84.0356" width="14.1212" height="0.559065" transform="rotate(-45 169.451 84.0356)" fill="#4B369D"/>
<rect x="169.451" y="74.4373" width="0.559065" height="14.1212" transform="rotate(-45 169.451 74.4373)" fill="#4B369D"/>
<path fill-rule="evenodd" clip-rule="evenodd" d="M169.371 74.5188H179.908V63.9658H169.371V74.5188ZM179.35 73.9593H169.93V64.5253H179.35V73.9593Z" fill="#4B369D"/>
<rect x="169.451" y="74.0422" width="14.1212" height="0.559065" transform="rotate(-45 169.451 74.0422)" fill="#4B369D"/>
<rect x="169.452" y="64.4448" width="0.559065" height="14.1212" transform="rotate(-45 169.452 64.4448)" fill="#4B369D"/>
<path fill-rule="evenodd" clip-rule="evenodd" d="M169.371 64.5254H179.908V53.9724H169.371V64.5254ZM179.35 63.9659H169.93V54.5319H179.35V63.9659Z" fill="#4B369D"/>
<rect x="169.452" y="64.05" width="14.1212" height="0.559065" transform="rotate(-45 169.452 64.05)" fill="#4B369D"/>
<rect x="169.452" y="54.4517" width="0.559065" height="14.1212" transform="rotate(-45 169.452 54.4517)" fill="#4B369D"/>
<path fill-rule="evenodd" clip-rule="evenodd" d="M169.371 54.532H179.908V43.979H169.371V54.532ZM179.35 53.974H169.93V44.54H179.35V53.974Z" fill="#4B369D"/>
<rect x="169.451" y="54.0569" width="14.1212" height="0.559065" transform="rotate(-45 169.451 54.0569)" fill="#4B369D"/>
<rect x="169.451" y="44.4585" width="0.559065" height="14.1212" transform="rotate(-45 169.451 44.4585)" fill="#4B369D"/>
<path fill-rule="evenodd" clip-rule="evenodd" d="M169.371 44.5401H179.908V33.9871H169.371V44.5401ZM179.35 43.9806H169.93V34.5466H179.35V43.9806Z" fill="#4B369D"/>
<rect x="169.451" y="44.0635" width="14.1212" height="0.559065" transform="rotate(-45 169.451 44.0635)" fill="#4B369D"/>
<rect x="169.451" y="34.4651" width="0.559065" height="14.1212" transform="rotate(-45 169.451 34.4651)" fill="#4B369D"/>
<path fill-rule="evenodd" clip-rule="evenodd" d="M169.371 34.5464H179.908V23.9934H169.371V34.5464ZM179.35 33.9869H169.93V24.5529H179.35V33.9869Z" fill="#4B369D"/>
<rect x="169.451" y="34.0698" width="14.1212" height="0.559065" transform="rotate(-45 169.451 34.0698)" fill="#4B369D"/>
<rect x="169.451" y="24.4714" width="0.559065" height="14.1212" transform="rotate(-45 169.451 24.4714)" fill="#4B369D"/>
<path fill-rule="evenodd" clip-rule="evenodd" d="M169.372 24.553H179.908V14H169.372V24.553ZM179.35 23.9935H169.93V14.5595H179.35V23.9935Z" fill="#4B369D"/>
<rect x="169.451" y="24.0767" width="14.1212" height="0.559065" transform="rotate(-45 169.451 24.0767)" fill="#4B369D"/>
<rect x="169.452" y="14.4792" width="0.559065" height="14.1212" transform="rotate(-45 169.452 14.4792)" fill="#4B369D"/>
<path fill-rule="evenodd" clip-rule="evenodd" d="M179.347 34.5464H189.884V23.9934H179.347V34.5464ZM189.327 33.9869H179.907V24.5529H189.327V33.9869Z" fill="#4B369D"/>
<rect x="179.429" y="34.0698" width="14.1212" height="0.559065" transform="rotate(-45 179.429 34.0698)" fill="#4B369D"/>
<rect x="179.429" y="24.4714" width="0.559065" height="14.1212" transform="rotate(-45 179.429 24.4714)" fill="#4B369D"/>
<path fill-rule="evenodd" clip-rule="evenodd" d="M159.393 34.5464H169.93V23.9934H159.393V34.5464ZM169.372 33.9869H159.953V24.5529H169.372V33.9869Z" fill="#4B369D"/>
<rect x="159.474" y="34.0691" width="14.1212" height="0.559065" transform="rotate(-45 159.474 34.0691)" fill="#4B369D"/>
<rect x="159.473" y="24.4717" width="0.559065" height="14.1212" transform="rotate(-45 159.473 24.4717)" fill="#4B369D"/>
<path fill-rule="evenodd" clip-rule="evenodd" d="M149.415 34.5464H159.951V23.9934H149.415V34.5464ZM159.393 33.9869H149.974V24.5529H159.393V33.9869Z" fill="#4B369D"/>
<rect x="149.496" y="34.0693" width="14.1212" height="0.559065" transform="rotate(-45 149.496 34.0693)" fill="#4B369D"/>
<rect x="149.495" y="24.4719" width="0.559065" height="14.1212" transform="rotate(-45 149.495 24.4719)" fill="#4B369D"/>
<path fill-rule="evenodd" clip-rule="evenodd" d="M139.114 34.5465H150.044V23.5996L139.114 34.5465ZM149.485 33.987H140.46L149.485 24.9484V33.987Z" fill="#4B369D"/>
<rect width="14.1212" height="0.559065" transform="matrix(0.706558 -0.707655 0.706558 0.707655 139.588 34.0693)" fill="#4B369D"/>
<rect x="139.508" y="39.2627" width="0.559504" height="35.2368" fill="#4B369D"/>
<path d="M141.735 77.1867H138.226C137.223 77.1867 136.402 76.3646 136.402 75.3604V71.8453C136.402 70.8411 137.223 70.019 138.226 70.019H141.735C142.738 70.019 143.559 70.8411 143.559 71.8453V75.3604C143.559 76.3646 142.738 77.1867 141.735 77.1867Z" fill="#4B369D"/>
<path d="M138.753 84.8137C136.493 84.8137 135.228 82.8785 135.009 81.0732L135.564 81.006C135.754 82.5741 136.834 84.2556 138.753 84.2556C138.761 84.2556 138.768 84.2556 138.774 84.2556C140.279 84.2452 141.89 83.1351 141.892 81.4984C141.892 79.5304 139.897 78.7113 139.878 78.7024L139.702 78.6323V76.0347H140.261V78.2622C140.812 78.5338 142.451 79.5066 142.451 81.4969C142.451 83.5305 140.544 84.8017 138.778 84.8137C138.769 84.8137 138.761 84.8137 138.753 84.8137Z" fill="#4B369D"/>
<path d="M159.807 42.1752H130.863C128.997 42.1752 127.472 40.6474 127.472 38.7794C127.472 36.9114 128.997 35.3835 130.863 35.3835H159.807C161.672 35.3835 163.198 36.9114 163.198 38.7794C163.196 40.6474 161.671 42.1752 159.807 42.1752Z" fill="#978CFF"/>
<path d="M214.278 145H169.021C165.875 145 163.299 142.422 163.299 139.269V136.697C163.299 133.546 165.873 130.966 169.021 130.966H214.278C217.424 130.966 220 133.544 220 136.697V139.269C219.999 142.42 217.424 145 214.278 145Z" fill="#A7ADFF"/>
<path d="M207.318 136.613H184.432C183.74 136.613 183.176 136.048 183.176 135.355C183.176 134.663 183.74 134.098 184.432 134.098H207.318C208.009 134.098 208.574 134.663 208.574 135.355C208.574 136.048 208.009 136.613 207.318 136.613Z" fill="white"/>
<path d="M196.632 141.506H184.432C183.74 141.506 183.176 140.94 183.176 140.248C183.176 139.555 183.74 138.99 184.432 138.99H196.632C197.324 138.99 197.888 139.555 197.888 140.248C197.888 140.939 197.324 141.506 196.632 141.506Z" fill="white"/>
<path d="M173.617 142.623C175.967 142.623 177.873 140.715 177.873 138.36C177.873 136.006 175.967 134.098 173.617 134.098C171.266 134.098 169.36 136.006 169.36 138.36C169.36 140.715 171.266 142.623 173.617 142.623Z" fill="white"/>
<path d="M120.374 139.111H60.1332C58.1609 139.111 56.5475 137.496 56.5475 135.52V91.8252C56.5475 89.8497 58.1609 88.2339 60.1332 88.2339H120.374C122.346 88.2339 123.959 89.8497 123.959 91.8252V135.52C123.959 137.496 122.346 139.111 120.374 139.111Z" fill="#A7ADFF"/>
<path d="M118.623 134.868H61.5931C59.6937 134.868 58.14 133.312 58.14 131.41V93.9035C58.14 92.0012 59.6937 90.4451 61.5931 90.4451H118.625C120.524 90.4451 122.078 92.0012 122.078 93.9035V131.41C122.076 133.312 120.522 134.868 118.623 134.868Z" fill="#E3E5FC"/>
<path d="M93.8137 136.791H89.0854C88.9707 136.791 88.8769 136.697 88.8769 136.582C88.8769 136.468 88.9707 136.374 89.0854 136.374H93.8137C93.9285 136.374 94.0223 136.468 94.0223 136.582C94.0238 136.697 93.9299 136.791 93.8137 136.791Z" fill="#E3E5FC"/>
<path d="M60.1454 89.9437C60.4054 89.9437 60.6162 89.7326 60.6162 89.4722C60.6162 89.2118 60.4054 89.0007 60.1454 89.0007C59.8854 89.0007 59.6747 89.2118 59.6747 89.4722C59.6747 89.7326 59.8854 89.9437 60.1454 89.9437Z" fill="#E3E5FC"/>
<path d="M62.1696 89.9437C62.4296 89.9437 62.6404 89.7326 62.6404 89.4722C62.6404 89.2118 62.4296 89.0007 62.1696 89.0007C61.9096 89.0007 61.6989 89.2118 61.6989 89.4722C61.6989 89.7326 61.9096 89.9437 62.1696 89.9437Z" fill="white"/>
<path d="M64.2138 89.9437C64.4738 89.9437 64.6846 89.7326 64.6846 89.4722C64.6846 89.2118 64.4738 89.0007 64.2138 89.0007C63.9538 89.0007 63.7431 89.2118 63.7431 89.4722C63.7431 89.7326 63.9538 89.9437 64.2138 89.9437Z" fill="#4B369D"/>
<path d="M92.9208 115.612H64.3038C63.9969 115.612 63.7451 115.36 63.7451 115.053C63.7451 114.745 63.9969 114.493 64.3038 114.493H92.9208C93.2277 114.493 93.4795 114.745 93.4795 115.053C93.4795 115.36 93.2292 115.612 92.9208 115.612Z" fill="white"/>
<path d="M92.9202 118.177H64.3032C63.9963 118.177 63.7445 117.925 63.7445 117.617C63.7445 117.31 63.9963 117.058 64.3032 117.058H92.9202C93.2271 117.058 93.4789 117.31 93.4789 117.617C93.4789 117.925 93.2286 118.177 92.9202 118.177Z" fill="white"/>
<path d="M92.9202 120.742H64.3032C63.9963 120.742 63.7445 120.49 63.7445 120.182C63.7445 119.875 63.9963 119.623 64.3032 119.623H92.9202C93.2271 119.623 93.4789 119.875 93.4789 120.182C93.4789 120.49 93.2286 120.742 92.9202 120.742Z" fill="white"/>
<path d="M92.9202 123.633H64.3032C63.9963 123.633 63.7445 123.381 63.7445 123.074C63.7445 122.766 63.9963 122.514 64.3032 122.514H92.9202C93.2271 122.514 93.4789 122.766 93.4789 123.074C93.4789 123.381 93.2286 123.633 92.9202 123.633Z" fill="white"/>
<path d="M92.9202 126.198H64.3032C63.9963 126.198 63.7445 125.946 63.7445 125.639C63.7445 125.331 63.9963 125.079 64.3032 125.079H92.9202C93.2271 125.079 93.4789 125.331 93.4789 125.639C93.4789 125.946 93.2286 126.198 92.9202 126.198Z" fill="white"/>
<path d="M92.9202 128.763H64.3032C63.9963 128.763 63.7445 128.511 63.7445 128.203C63.7445 127.896 63.9963 127.644 64.3032 127.644H92.9202C93.2271 127.644 93.4789 127.896 93.4789 128.203C93.4789 128.511 93.2286 128.763 92.9202 128.763Z" fill="white"/>
<path d="M70.4422 109.55H86.7812C90.4652 109.55 93.4789 106.532 93.4789 102.842V101.643C93.4789 97.9529 90.4652 94.9346 86.7812 94.9346H70.4422C66.7582 94.9346 63.7445 97.9529 63.7445 101.643V102.842C63.743 106.532 66.7582 109.55 70.4422 109.55Z" fill="white"/>
<path d="M106.467 120.526H109.757C113.441 120.526 116.454 117.507 116.454 113.817V101.643C116.454 97.9529 113.441 94.9346 109.757 94.9346H106.467C102.783 94.9346 99.7696 97.9529 99.7696 101.643V113.817C99.7681 117.507 102.783 120.526 106.467 120.526Z" fill="white"/>
<path d="M102.782 128.094H113.444C115.1 128.094 116.456 126.737 116.456 125.078C116.456 123.419 115.1 122.061 113.444 122.061H102.782C101.125 122.061 99.7696 123.419 99.7696 125.078C99.7681 126.738 101.124 128.094 102.782 128.094Z" fill="white"/>
</svg>
